G04 #@! TF.GenerationSoftware,KiCad,Pcbnew,(2018-01-11 revision 6f2beeb)-master*
G04 #@! TF.CreationDate,2018-01-15T15:50:05-06:00*
G04 #@! TF.ProjectId,minivol_led_encoder,6D696E69766F6C5F6C65645F656E636F,rev?*
G04 #@! TF.SameCoordinates,PX6ea0500PY7829b80*
G04 #@! TF.FileFunction,Copper,L2,Bot,Signal*
G04 #@! TF.FilePolarity,Positive*
%FSLAX46Y46*%
G04 Gerber Fmt 4.6, Leading zero omitted, Abs format (unit mm)*
G04 Created by KiCad (PCBNEW (2018-01-11 revision 6f2beeb)-master) date Monday, January 15, 2018 'PMt' 03:50:05 PM*
%MOMM*%
%LPD*%
G01*
G04 APERTURE LIST*
%ADD10C,1.600000*%
%ADD11C,1.800000*%
%ADD12R,1.800000X1.800000*%
%ADD13O,1.700000X1.700000*%
%ADD14R,1.700000X1.700000*%
%ADD15O,1.600000X1.600000*%
%ADD16R,1.600000X1.600000*%
%ADD17C,0.500000*%
%ADD18C,0.254000*%
G04 APERTURE END LIST*
D10*
X33225000Y15510000D03*
X33225000Y20510000D03*
X38305000Y20510000D03*
X38305000Y15510000D03*
X45290000Y28290000D03*
X45290000Y33290000D03*
D11*
X63070000Y34560000D03*
D12*
X60530000Y34560000D03*
D11*
X57990000Y43450000D03*
D12*
X55450000Y43450000D03*
X47830000Y50435000D03*
D11*
X50370000Y50435000D03*
D12*
X38305000Y53610000D03*
D11*
X40845000Y53610000D03*
X29415000Y53610000D03*
D12*
X26875000Y53610000D03*
D11*
X19890000Y50435000D03*
D12*
X17350000Y50435000D03*
X9730000Y43450000D03*
D11*
X12270000Y43450000D03*
D12*
X4650000Y34560000D03*
D11*
X7190000Y34560000D03*
D13*
X18620000Y21860000D03*
X21160000Y21860000D03*
X18620000Y19320000D03*
X21160000Y19320000D03*
X18620000Y16780000D03*
X21160000Y16780000D03*
X18620000Y14240000D03*
X21160000Y14240000D03*
X18620000Y11700000D03*
X21160000Y11700000D03*
X18620000Y9160000D03*
D14*
X21160000Y9160000D03*
D13*
X43385000Y11700000D03*
X40845000Y11700000D03*
X38305000Y11700000D03*
X35765000Y11700000D03*
X33225000Y11700000D03*
D14*
X30685000Y11700000D03*
D15*
X60530000Y29480000D03*
D10*
X60530000Y21860000D03*
X55450000Y30750000D03*
D15*
X55450000Y38370000D03*
X47830000Y44720000D03*
D10*
X47830000Y37100000D03*
X38305000Y40910000D03*
D15*
X38305000Y48530000D03*
X26875000Y48530000D03*
D10*
X26875000Y40910000D03*
X17350000Y37100000D03*
D15*
X17350000Y44720000D03*
X11000000Y38370000D03*
D10*
X11000000Y30750000D03*
X4650000Y21860000D03*
D15*
X4650000Y29480000D03*
X40210000Y26940000D03*
X22430000Y34560000D03*
X37670000Y26940000D03*
X24970000Y34560000D03*
X35130000Y26940000D03*
X27510000Y34560000D03*
X32590000Y26940000D03*
X30050000Y34560000D03*
X30050000Y26940000D03*
X32590000Y34560000D03*
X27510000Y26940000D03*
X35130000Y34560000D03*
X24970000Y26940000D03*
X37670000Y34560000D03*
X22430000Y26940000D03*
D16*
X40210000Y34560000D03*
D17*
X33225000Y11700000D02*
X33225000Y10497919D01*
X33225000Y10497919D02*
X28787070Y6059989D01*
X28787070Y6059989D02*
X18750149Y6059989D01*
X18750149Y6059989D02*
X16769999Y8040139D01*
X16769999Y8040139D02*
X16769999Y11052080D01*
X16769999Y11052080D02*
X17417919Y11700000D01*
X17417919Y11700000D02*
X18620000Y11700000D01*
X33225000Y11700000D02*
X33225000Y15510000D01*
X29822612Y3559969D02*
X17714607Y3559969D01*
X17714607Y3559969D02*
X14269979Y7004597D01*
X14269979Y7004597D02*
X14269979Y13632060D01*
X14269979Y13632060D02*
X17417919Y16780000D01*
X17417919Y16780000D02*
X18620000Y16780000D01*
X41480000Y7890000D02*
X34152642Y7890000D01*
X34152642Y7890000D02*
X29822612Y3559969D01*
X43385000Y9795000D02*
X41480000Y7890000D01*
X43385000Y11700000D02*
X43385000Y9795000D01*
X38305000Y20510000D02*
X43385000Y15430000D01*
X43385000Y15430000D02*
X43385000Y11700000D01*
X33225000Y20510000D02*
X38305000Y20510000D01*
X21160000Y9160000D02*
X24210998Y9160000D01*
X24210998Y9160000D02*
X32360999Y17310001D01*
X32360999Y17310001D02*
X36504999Y17310001D01*
X36504999Y17310001D02*
X38305000Y15510000D01*
X38305000Y15510000D02*
X35765000Y12970000D01*
X35765000Y12970000D02*
X35765000Y11700000D01*
X24970000Y25035000D02*
X20592919Y25035000D01*
X20592919Y25035000D02*
X18620000Y23062081D01*
X18620000Y23062081D02*
X18620000Y21860000D01*
X24970000Y26940000D02*
X24970000Y25035000D01*
X40210000Y26940000D02*
X40210000Y28071370D01*
X40210000Y28071370D02*
X39541369Y28740001D01*
X39541369Y28740001D02*
X26645999Y28740001D01*
X26645999Y28740001D02*
X25769999Y27864001D01*
X25769999Y27864001D02*
X25769999Y27739999D01*
X25769999Y27739999D02*
X24970000Y26940000D01*
X40210000Y26940000D02*
X43940000Y26940000D01*
X43940000Y26940000D02*
X45290000Y28290000D01*
X31790001Y24732781D02*
X23837220Y16780000D01*
X23837220Y16780000D02*
X21160000Y16780000D01*
X32590000Y26940000D02*
X31790001Y26140001D01*
X31790001Y26140001D02*
X31790001Y24732781D01*
X63070000Y34560000D02*
X63070000Y29355998D01*
X63070000Y29355998D02*
X58854001Y25139999D01*
X58854001Y25139999D02*
X38338631Y25139999D01*
X38338631Y25139999D02*
X37670000Y25808630D01*
X37670000Y25808630D02*
X37670000Y26940000D01*
X60530000Y34560000D02*
X60530000Y29480000D01*
X57990000Y43450000D02*
X57990000Y44722792D01*
X57312791Y45400001D02*
X52350001Y45400001D01*
X57990000Y44722792D02*
X57312791Y45400001D01*
X52350001Y45400001D02*
X41510000Y34560000D01*
X41510000Y34560000D02*
X40210000Y34560000D01*
X55450000Y43450000D02*
X55450000Y38370000D01*
X47830000Y44720000D02*
X47830000Y49800000D01*
X45085000Y51290002D02*
X45085000Y43106370D01*
X45085000Y43106370D02*
X37670000Y35691370D01*
X37670000Y35691370D02*
X37670000Y34560000D01*
X49372792Y52705000D02*
X46499998Y52705000D01*
X46499998Y52705000D02*
X45085000Y51290002D01*
X50370000Y50435000D02*
X50370000Y51707792D01*
X50370000Y51707792D02*
X49372792Y52705000D01*
X38305000Y48530000D02*
X38305000Y53610000D01*
X35130000Y34560000D02*
X35130000Y42690998D01*
X35130000Y42690998D02*
X40845000Y48405998D01*
X40845000Y48405998D02*
X40845000Y53610000D01*
X32590000Y34560000D02*
X32590000Y50435000D01*
X32590000Y50435000D02*
X29415000Y53610000D01*
X26875000Y48530000D02*
X26875000Y53610000D01*
X30050000Y34560000D02*
X30050000Y35691370D01*
X28001997Y36410001D02*
X19890000Y44521998D01*
X19890000Y44521998D02*
X19890000Y49800000D01*
X29331369Y36410001D02*
X28001997Y36410001D01*
X30050000Y35691370D02*
X29331369Y36410001D01*
X17350000Y44720000D02*
X17350000Y49800000D01*
X11000000Y38370000D02*
X9730000Y39640000D01*
X9730000Y39640000D02*
X9730000Y43450000D01*
X26710001Y35934217D02*
X20094217Y42550001D01*
X20094217Y42550001D02*
X13169999Y42550001D01*
X13169999Y42550001D02*
X12270000Y43450000D01*
X27510000Y34560000D02*
X26710001Y35359999D01*
X26710001Y35359999D02*
X26710001Y35934217D01*
X4650000Y29480000D02*
X4650000Y34560000D01*
X24970000Y33290000D02*
X24335000Y32655000D01*
X24335000Y32655000D02*
X9095000Y32655000D01*
X9095000Y32655000D02*
X7190000Y34560000D01*
X24970000Y34560000D02*
X24970000Y33290000D01*
X30050000Y25035000D02*
X24335000Y19320000D01*
X24335000Y19320000D02*
X21160000Y19320000D01*
X30050000Y26940000D02*
X30050000Y25035000D01*
X27510000Y26940000D02*
X27510000Y24897780D01*
X27510000Y24897780D02*
X24472220Y21860000D01*
X24472220Y21860000D02*
X21160000Y21860000D01*
X23065000Y14240000D02*
X21160000Y14240000D01*
X34330001Y25505001D02*
X23065000Y14240000D01*
X35130000Y26940000D02*
X34330001Y26140001D01*
X34330001Y26140001D02*
X34330001Y25505001D01*
X29925011Y18560011D02*
X23065000Y11700000D01*
X23065000Y11700000D02*
X21160000Y11700000D01*
X40845000Y11700000D02*
X40845000Y15634002D01*
X40845000Y15634002D02*
X37918991Y18560011D01*
X37918991Y18560011D02*
X29925011Y18560011D01*
X37035000Y9160000D02*
X33654861Y9160000D01*
X33654861Y9160000D02*
X29304841Y4809979D01*
X29304841Y4809979D02*
X18232378Y4809979D01*
X15519989Y7522368D02*
X15519989Y12342070D01*
X15519989Y12342070D02*
X17417919Y14240000D01*
X18232378Y4809979D02*
X15519989Y7522368D01*
X17417919Y14240000D02*
X18620000Y14240000D01*
X38305000Y10430000D02*
X37035000Y9160000D01*
X38305000Y11700000D02*
X38305000Y10430000D01*
X30685000Y11700000D02*
X30685000Y10350000D01*
X30685000Y10350000D02*
X27644999Y7309999D01*
X27644999Y7309999D02*
X19267920Y7309999D01*
X19267920Y7309999D02*
X18620000Y7957919D01*
X18620000Y7957919D02*
X18620000Y9160000D01*
D18*
G36*
X63467005Y56364502D02*
X64880221Y55420221D01*
X65824502Y54007003D01*
X66170000Y52270069D01*
X66170000Y5419931D01*
X65824502Y3682997D01*
X64880221Y2269779D01*
X63467005Y1325498D01*
X61730069Y980000D01*
X5989931Y980000D01*
X4252997Y1325498D01*
X2839779Y2269779D01*
X1895498Y3682995D01*
X1550000Y5419931D01*
X1550000Y5509456D01*
X3322571Y5509456D01*
X3698877Y4598725D01*
X4395060Y3901326D01*
X5305133Y3523431D01*
X6290544Y3522571D01*
X7201275Y3898877D01*
X7898674Y4595060D01*
X8276569Y5505133D01*
X8277429Y6490544D01*
X7901123Y7401275D01*
X7204940Y8098674D01*
X6294867Y8476569D01*
X5309456Y8477429D01*
X4398725Y8101123D01*
X3701326Y7404940D01*
X3323431Y6494867D01*
X3322571Y5509456D01*
X1550000Y5509456D01*
X1550000Y13632060D01*
X13142979Y13632060D01*
X13142979Y7004597D01*
X13228767Y6573313D01*
X13473070Y6207688D01*
X16917698Y2763059D01*
X17283323Y2518757D01*
X17714607Y2432969D01*
X29822612Y2432969D01*
X30253896Y2518757D01*
X30619521Y2763060D01*
X33365917Y5509456D01*
X59322571Y5509456D01*
X59698877Y4598725D01*
X60395060Y3901326D01*
X61305133Y3523431D01*
X62290544Y3522571D01*
X63201275Y3898877D01*
X63898674Y4595060D01*
X64276569Y5505133D01*
X64277429Y6490544D01*
X63901123Y7401275D01*
X63204940Y8098674D01*
X62294867Y8476569D01*
X61309456Y8477429D01*
X60398725Y8101123D01*
X59701326Y7404940D01*
X59323431Y6494867D01*
X59322571Y5509456D01*
X33365917Y5509456D01*
X34619461Y6763000D01*
X41480000Y6763000D01*
X41911284Y6848788D01*
X42276909Y7093091D01*
X44181909Y8998091D01*
X44426212Y9363716D01*
X44512000Y9795000D01*
X44512000Y10382069D01*
X44606173Y10444993D01*
X44980540Y11005272D01*
X45112000Y11666166D01*
X45112000Y11733834D01*
X44980540Y12394728D01*
X44606173Y12955007D01*
X44512000Y13017931D01*
X44512000Y15430000D01*
X44426212Y15861284D01*
X44181909Y16226909D01*
X39981928Y20426890D01*
X39982290Y20842112D01*
X39727520Y21458703D01*
X39256184Y21930862D01*
X38640039Y22186708D01*
X37972888Y22187290D01*
X37356297Y21932520D01*
X37060261Y21637000D01*
X34469534Y21637000D01*
X34176184Y21930862D01*
X33560039Y22186708D01*
X32892888Y22187290D01*
X32404177Y21985359D01*
X35126910Y24708092D01*
X35371213Y25073717D01*
X35384397Y25139999D01*
X35413548Y25286547D01*
X35771760Y25357800D01*
X36315818Y25721328D01*
X36400000Y25847315D01*
X36484182Y25721328D01*
X36572043Y25662621D01*
X36628788Y25377346D01*
X36873091Y25011721D01*
X37541722Y24343090D01*
X37907347Y24098787D01*
X38338631Y24012999D01*
X58854001Y24012999D01*
X59285285Y24098787D01*
X59650910Y24343090D01*
X63866909Y28559089D01*
X64111212Y28924714D01*
X64197000Y29355998D01*
X64197000Y33174169D01*
X64575588Y33552096D01*
X64846690Y34204982D01*
X64847307Y34911916D01*
X64577345Y35565274D01*
X64077904Y36065588D01*
X63425018Y36336690D01*
X62718084Y36337307D01*
X62075867Y36071948D01*
X62062281Y36092281D01*
X61772188Y36286116D01*
X61430000Y36354181D01*
X59630000Y36354181D01*
X59287812Y36286116D01*
X58997719Y36092281D01*
X58803884Y35802188D01*
X58735819Y35460000D01*
X58735819Y33660000D01*
X58803884Y33317812D01*
X58997719Y33027719D01*
X59287812Y32833884D01*
X59403000Y32810972D01*
X59403000Y30737973D01*
X59344182Y30698672D01*
X58980654Y30154614D01*
X58853000Y29512854D01*
X58853000Y29447146D01*
X58980654Y28805386D01*
X59344182Y28261328D01*
X59888240Y27897800D01*
X59996458Y27876274D01*
X58387183Y26266999D01*
X44860817Y26266999D01*
X45206891Y26613072D01*
X45622112Y26612710D01*
X46238703Y26867480D01*
X46710862Y27338816D01*
X46966708Y27954961D01*
X46967290Y28622112D01*
X46712520Y29238703D01*
X46241184Y29710862D01*
X45625039Y29966708D01*
X44957888Y29967290D01*
X44341297Y29712520D01*
X43869138Y29241184D01*
X43613292Y28625039D01*
X43612927Y28206745D01*
X43473182Y28067000D01*
X41457071Y28067000D01*
X41395818Y28158672D01*
X41307957Y28217379D01*
X41251212Y28502654D01*
X41006909Y28868279D01*
X40338278Y29536910D01*
X39972653Y29781213D01*
X39541369Y29867001D01*
X26645999Y29867001D01*
X26245226Y29787282D01*
X26214715Y29781213D01*
X25849090Y29536910D01*
X24973090Y28660910D01*
X24965044Y28648868D01*
X24328240Y28522200D01*
X23784182Y28158672D01*
X23700000Y28032685D01*
X23615818Y28158672D01*
X23071760Y28522200D01*
X22430000Y28649854D01*
X21788240Y28522200D01*
X21244182Y28158672D01*
X20880654Y27614614D01*
X20753000Y26972854D01*
X20753000Y26907146D01*
X20880654Y26265386D01*
X20949734Y26162000D01*
X20592919Y26162000D01*
X20161635Y26076212D01*
X19796010Y25831909D01*
X17823091Y23858990D01*
X17578788Y23493365D01*
X17517001Y23182742D01*
X17364993Y23081173D01*
X16990626Y22520894D01*
X16859166Y21860000D01*
X16990626Y21199106D01*
X17364993Y20638827D01*
X17925272Y20264460D01*
X18586166Y20133000D01*
X18653834Y20133000D01*
X19314728Y20264460D01*
X19875007Y20638827D01*
X19890000Y20661266D01*
X19904993Y20638827D01*
X19978068Y20590000D01*
X19904993Y20541173D01*
X19530626Y19980894D01*
X19399166Y19320000D01*
X19530626Y18659106D01*
X19904993Y18098827D01*
X20465272Y17724460D01*
X21033000Y17611532D01*
X21033000Y15948468D01*
X20465272Y15835540D01*
X19904993Y15461173D01*
X19890000Y15438734D01*
X19875007Y15461173D01*
X19801932Y15510000D01*
X19875007Y15558827D01*
X20249374Y16119106D01*
X20380834Y16780000D01*
X20249374Y17440894D01*
X19875007Y18001173D01*
X19314728Y18375540D01*
X18653834Y18507000D01*
X18586166Y18507000D01*
X17925272Y18375540D01*
X17364993Y18001173D01*
X17284311Y17880424D01*
X17058189Y17835445D01*
X16986634Y17821212D01*
X16621009Y17576909D01*
X13473070Y14428969D01*
X13228767Y14063344D01*
X13142979Y13632060D01*
X1550000Y13632060D01*
X1550000Y35460000D01*
X2855819Y35460000D01*
X2855819Y33660000D01*
X2923884Y33317812D01*
X3117719Y33027719D01*
X3407812Y32833884D01*
X3523000Y32810972D01*
X3523000Y30737973D01*
X3464182Y30698672D01*
X3100654Y30154614D01*
X2973000Y29512854D01*
X2973000Y29447146D01*
X3100654Y28805386D01*
X3464182Y28261328D01*
X4008240Y27897800D01*
X4650000Y27770146D01*
X5291760Y27897800D01*
X5835818Y28261328D01*
X6199346Y28805386D01*
X6327000Y29447146D01*
X6327000Y29512854D01*
X6199346Y30154614D01*
X5835818Y30698672D01*
X5777000Y30737973D01*
X5777000Y32810972D01*
X5892188Y32833884D01*
X6182281Y33027719D01*
X6196203Y33048554D01*
X6834982Y32783310D01*
X7373342Y32782840D01*
X8298091Y31858091D01*
X8663716Y31613788D01*
X9095000Y31528000D01*
X24335000Y31528000D01*
X24766284Y31613788D01*
X25131909Y31858091D01*
X25766910Y32493091D01*
X26011212Y32858716D01*
X26097000Y33290000D01*
X26097000Y33302027D01*
X26155818Y33341328D01*
X26240000Y33467315D01*
X26324182Y33341328D01*
X26868240Y32977800D01*
X27510000Y32850146D01*
X28151760Y32977800D01*
X28695818Y33341328D01*
X28780000Y33467315D01*
X28864182Y33341328D01*
X29408240Y32977800D01*
X30050000Y32850146D01*
X30691760Y32977800D01*
X31235818Y33341328D01*
X31320000Y33467315D01*
X31404182Y33341328D01*
X31948240Y32977800D01*
X32590000Y32850146D01*
X33231760Y32977800D01*
X33775818Y33341328D01*
X33860000Y33467315D01*
X33944182Y33341328D01*
X34488240Y32977800D01*
X35130000Y32850146D01*
X35771760Y32977800D01*
X36315818Y33341328D01*
X36400000Y33467315D01*
X36484182Y33341328D01*
X37028240Y32977800D01*
X37670000Y32850146D01*
X38311760Y32977800D01*
X38703150Y33239319D01*
X38777719Y33127719D01*
X39067812Y32933884D01*
X39410000Y32865819D01*
X41010000Y32865819D01*
X41352188Y32933884D01*
X41642281Y33127719D01*
X41836116Y33417812D01*
X41852696Y33501167D01*
X41941284Y33518788D01*
X42306909Y33763091D01*
X52816820Y44273001D01*
X53655819Y44273001D01*
X53655819Y42550000D01*
X53723884Y42207812D01*
X53917719Y41917719D01*
X54207812Y41723884D01*
X54323000Y41700972D01*
X54323000Y39627973D01*
X54264182Y39588672D01*
X53900654Y39044614D01*
X53773000Y38402854D01*
X53773000Y38337146D01*
X53900654Y37695386D01*
X54264182Y37151328D01*
X54808240Y36787800D01*
X55450000Y36660146D01*
X56091760Y36787800D01*
X56635818Y37151328D01*
X56999346Y37695386D01*
X57127000Y38337146D01*
X57127000Y38402854D01*
X56999346Y39044614D01*
X56635818Y39588672D01*
X56577000Y39627973D01*
X56577000Y41700972D01*
X56692188Y41723884D01*
X56982281Y41917719D01*
X56996203Y41938554D01*
X57634982Y41673310D01*
X58341916Y41672693D01*
X58995274Y41942655D01*
X59495588Y42442096D01*
X59766690Y43094982D01*
X59767307Y43801916D01*
X59497345Y44455274D01*
X59088807Y44864526D01*
X59031212Y45154076D01*
X58786909Y45519701D01*
X58109700Y46196910D01*
X57744075Y46441213D01*
X57312791Y46527001D01*
X52350001Y46527001D01*
X51990271Y46455446D01*
X51918716Y46441213D01*
X51553091Y46196910D01*
X49334600Y43978419D01*
X49379346Y44045386D01*
X49507000Y44687146D01*
X49507000Y44752854D01*
X49379346Y45394614D01*
X49015818Y45938672D01*
X48957000Y45977973D01*
X48957000Y48685972D01*
X49072188Y48708884D01*
X49362281Y48902719D01*
X49376203Y48923554D01*
X50014982Y48658310D01*
X50721916Y48657693D01*
X51375274Y48927655D01*
X51875588Y49427096D01*
X52146690Y50079982D01*
X52147307Y50786916D01*
X51877345Y51440274D01*
X51808284Y51509456D01*
X59322571Y51509456D01*
X59698877Y50598725D01*
X60395060Y49901326D01*
X61305133Y49523431D01*
X62290544Y49522571D01*
X63201275Y49898877D01*
X63898674Y50595060D01*
X64276569Y51505133D01*
X64277429Y52490544D01*
X63901123Y53401275D01*
X63204940Y54098674D01*
X62294867Y54476569D01*
X61309456Y54477429D01*
X60398725Y54101123D01*
X59701326Y53404940D01*
X59323431Y52494867D01*
X59322571Y51509456D01*
X51808284Y51509456D01*
X51468807Y51849526D01*
X51411212Y52139076D01*
X51166909Y52504701D01*
X50169701Y53501909D01*
X49804076Y53746212D01*
X49372792Y53832000D01*
X46499998Y53832000D01*
X46068714Y53746212D01*
X45703088Y53501909D01*
X44288091Y52086911D01*
X44043788Y51721286D01*
X43958000Y51290002D01*
X43958000Y43573189D01*
X36873091Y36488279D01*
X36628788Y36122654D01*
X36572043Y35837379D01*
X36484182Y35778672D01*
X36400000Y35652685D01*
X36315818Y35778672D01*
X36257000Y35817973D01*
X36257000Y42224180D01*
X41641910Y47609089D01*
X41886212Y47974714D01*
X41972000Y48405998D01*
X41972000Y52224169D01*
X42350588Y52602096D01*
X42621690Y53254982D01*
X42622307Y53961916D01*
X42352345Y54615274D01*
X41852904Y55115588D01*
X41200018Y55386690D01*
X40493084Y55387307D01*
X39850867Y55121948D01*
X39837281Y55142281D01*
X39547188Y55336116D01*
X39205000Y55404181D01*
X37405000Y55404181D01*
X37062812Y55336116D01*
X36772719Y55142281D01*
X36578884Y54852188D01*
X36510819Y54510000D01*
X36510819Y52710000D01*
X36578884Y52367812D01*
X36772719Y52077719D01*
X37062812Y51883884D01*
X37178000Y51860972D01*
X37178000Y49787973D01*
X37119182Y49748672D01*
X36755654Y49204614D01*
X36628000Y48562854D01*
X36628000Y48497146D01*
X36755654Y47855386D01*
X37119182Y47311328D01*
X37663240Y46947800D01*
X37771458Y46926274D01*
X34333091Y43487907D01*
X34088788Y43122282D01*
X34003000Y42690998D01*
X34003000Y35817973D01*
X33944182Y35778672D01*
X33860000Y35652685D01*
X33775818Y35778672D01*
X33717000Y35817973D01*
X33717000Y50435000D01*
X33631212Y50866284D01*
X33386909Y51231909D01*
X31191840Y53426978D01*
X31192307Y53961916D01*
X30922345Y54615274D01*
X30422904Y55115588D01*
X29770018Y55386690D01*
X29063084Y55387307D01*
X28420867Y55121948D01*
X28407281Y55142281D01*
X28117188Y55336116D01*
X27775000Y55404181D01*
X25975000Y55404181D01*
X25632812Y55336116D01*
X25342719Y55142281D01*
X25148884Y54852188D01*
X25080819Y54510000D01*
X25080819Y52710000D01*
X25148884Y52367812D01*
X25342719Y52077719D01*
X25632812Y51883884D01*
X25748000Y51860972D01*
X25748000Y49787973D01*
X25689182Y49748672D01*
X25325654Y49204614D01*
X25198000Y48562854D01*
X25198000Y48497146D01*
X25325654Y47855386D01*
X25689182Y47311328D01*
X26233240Y46947800D01*
X26875000Y46820146D01*
X27516760Y46947800D01*
X28060818Y47311328D01*
X28424346Y47855386D01*
X28552000Y48497146D01*
X28552000Y48562854D01*
X28424346Y49204614D01*
X28060818Y49748672D01*
X28002000Y49787973D01*
X28002000Y51860972D01*
X28117188Y51883884D01*
X28407281Y52077719D01*
X28421203Y52098554D01*
X29059982Y51833310D01*
X29598342Y51832840D01*
X31463000Y49968182D01*
X31463000Y35817973D01*
X31404182Y35778672D01*
X31320000Y35652685D01*
X31235818Y35778672D01*
X31147957Y35837379D01*
X31091212Y36122654D01*
X31048808Y36186116D01*
X30846910Y36488279D01*
X30128278Y37206910D01*
X29762653Y37451213D01*
X29331369Y37537001D01*
X28468815Y37537001D01*
X21017000Y44988816D01*
X21017000Y49049169D01*
X21395588Y49427096D01*
X21666690Y50079982D01*
X21667307Y50786916D01*
X21397345Y51440274D01*
X20897904Y51940588D01*
X20245018Y52211690D01*
X19538084Y52212307D01*
X18895867Y51946948D01*
X18882281Y51967281D01*
X18592188Y52161116D01*
X18250000Y52229181D01*
X16450000Y52229181D01*
X16107812Y52161116D01*
X15817719Y51967281D01*
X15623884Y51677188D01*
X15555819Y51335000D01*
X15555819Y49535000D01*
X15623884Y49192812D01*
X15817719Y48902719D01*
X16107812Y48708884D01*
X16223000Y48685972D01*
X16223000Y45977973D01*
X16164182Y45938672D01*
X15800654Y45394614D01*
X15673000Y44752854D01*
X15673000Y44687146D01*
X15800654Y44045386D01*
X16046801Y43677001D01*
X14047198Y43677001D01*
X14047307Y43801916D01*
X13777345Y44455274D01*
X13277904Y44955588D01*
X12625018Y45226690D01*
X11918084Y45227307D01*
X11275867Y44961948D01*
X11262281Y44982281D01*
X10972188Y45176116D01*
X10630000Y45244181D01*
X8830000Y45244181D01*
X8487812Y45176116D01*
X8197719Y44982281D01*
X8003884Y44692188D01*
X7935819Y44350000D01*
X7935819Y42550000D01*
X8003884Y42207812D01*
X8197719Y41917719D01*
X8487812Y41723884D01*
X8603000Y41700972D01*
X8603000Y39640000D01*
X8688788Y39208716D01*
X8933091Y38843091D01*
X9331350Y38444832D01*
X9323000Y38402854D01*
X9323000Y38337146D01*
X9450654Y37695386D01*
X9814182Y37151328D01*
X10358240Y36787800D01*
X11000000Y36660146D01*
X11641760Y36787800D01*
X12185818Y37151328D01*
X12549346Y37695386D01*
X12677000Y38337146D01*
X12677000Y38402854D01*
X12549346Y39044614D01*
X12185818Y39588672D01*
X11641760Y39952200D01*
X11000000Y40079854D01*
X10903216Y40060602D01*
X10857000Y40106818D01*
X10857000Y41700972D01*
X10972188Y41723884D01*
X11262281Y41917719D01*
X11276203Y41938554D01*
X11914982Y41673310D01*
X12493247Y41672805D01*
X12738715Y41508789D01*
X13169999Y41423001D01*
X19627399Y41423001D01*
X24811978Y36238421D01*
X24328240Y36142200D01*
X23784182Y35778672D01*
X23420654Y35234614D01*
X23293000Y34592854D01*
X23293000Y34527146D01*
X23420654Y33885386D01*
X23489734Y33782000D01*
X9561818Y33782000D01*
X8966840Y34376978D01*
X8967307Y34911916D01*
X8697345Y35565274D01*
X8197904Y36065588D01*
X7545018Y36336690D01*
X6838084Y36337307D01*
X6195867Y36071948D01*
X6182281Y36092281D01*
X5892188Y36286116D01*
X5550000Y36354181D01*
X3750000Y36354181D01*
X3407812Y36286116D01*
X3117719Y36092281D01*
X2923884Y35802188D01*
X2855819Y35460000D01*
X1550000Y35460000D01*
X1550000Y51509456D01*
X3322571Y51509456D01*
X3698877Y50598725D01*
X4395060Y49901326D01*
X5305133Y49523431D01*
X6290544Y49522571D01*
X7201275Y49898877D01*
X7898674Y50595060D01*
X8276569Y51505133D01*
X8277429Y52490544D01*
X7901123Y53401275D01*
X7204940Y54098674D01*
X6294867Y54476569D01*
X5309456Y54477429D01*
X4398725Y54101123D01*
X3701326Y53404940D01*
X3323431Y52494867D01*
X3322571Y51509456D01*
X1550000Y51509456D01*
X1550000Y52270069D01*
X1895498Y54007005D01*
X2839779Y55420221D01*
X4252997Y56364502D01*
X5989931Y56710000D01*
X61730069Y56710000D01*
X63467005Y56364502D01*
X63467005Y56364502D01*
G37*
X63467005Y56364502D02*
X64880221Y55420221D01*
X65824502Y54007003D01*
X66170000Y52270069D01*
X66170000Y5419931D01*
X65824502Y3682997D01*
X64880221Y2269779D01*
X63467005Y1325498D01*
X61730069Y980000D01*
X5989931Y980000D01*
X4252997Y1325498D01*
X2839779Y2269779D01*
X1895498Y3682995D01*
X1550000Y5419931D01*
X1550000Y5509456D01*
X3322571Y5509456D01*
X3698877Y4598725D01*
X4395060Y3901326D01*
X5305133Y3523431D01*
X6290544Y3522571D01*
X7201275Y3898877D01*
X7898674Y4595060D01*
X8276569Y5505133D01*
X8277429Y6490544D01*
X7901123Y7401275D01*
X7204940Y8098674D01*
X6294867Y8476569D01*
X5309456Y8477429D01*
X4398725Y8101123D01*
X3701326Y7404940D01*
X3323431Y6494867D01*
X3322571Y5509456D01*
X1550000Y5509456D01*
X1550000Y13632060D01*
X13142979Y13632060D01*
X13142979Y7004597D01*
X13228767Y6573313D01*
X13473070Y6207688D01*
X16917698Y2763059D01*
X17283323Y2518757D01*
X17714607Y2432969D01*
X29822612Y2432969D01*
X30253896Y2518757D01*
X30619521Y2763060D01*
X33365917Y5509456D01*
X59322571Y5509456D01*
X59698877Y4598725D01*
X60395060Y3901326D01*
X61305133Y3523431D01*
X62290544Y3522571D01*
X63201275Y3898877D01*
X63898674Y4595060D01*
X64276569Y5505133D01*
X64277429Y6490544D01*
X63901123Y7401275D01*
X63204940Y8098674D01*
X62294867Y8476569D01*
X61309456Y8477429D01*
X60398725Y8101123D01*
X59701326Y7404940D01*
X59323431Y6494867D01*
X59322571Y5509456D01*
X33365917Y5509456D01*
X34619461Y6763000D01*
X41480000Y6763000D01*
X41911284Y6848788D01*
X42276909Y7093091D01*
X44181909Y8998091D01*
X44426212Y9363716D01*
X44512000Y9795000D01*
X44512000Y10382069D01*
X44606173Y10444993D01*
X44980540Y11005272D01*
X45112000Y11666166D01*
X45112000Y11733834D01*
X44980540Y12394728D01*
X44606173Y12955007D01*
X44512000Y13017931D01*
X44512000Y15430000D01*
X44426212Y15861284D01*
X44181909Y16226909D01*
X39981928Y20426890D01*
X39982290Y20842112D01*
X39727520Y21458703D01*
X39256184Y21930862D01*
X38640039Y22186708D01*
X37972888Y22187290D01*
X37356297Y21932520D01*
X37060261Y21637000D01*
X34469534Y21637000D01*
X34176184Y21930862D01*
X33560039Y22186708D01*
X32892888Y22187290D01*
X32404177Y21985359D01*
X35126910Y24708092D01*
X35371213Y25073717D01*
X35384397Y25139999D01*
X35413548Y25286547D01*
X35771760Y25357800D01*
X36315818Y25721328D01*
X36400000Y25847315D01*
X36484182Y25721328D01*
X36572043Y25662621D01*
X36628788Y25377346D01*
X36873091Y25011721D01*
X37541722Y24343090D01*
X37907347Y24098787D01*
X38338631Y24012999D01*
X58854001Y24012999D01*
X59285285Y24098787D01*
X59650910Y24343090D01*
X63866909Y28559089D01*
X64111212Y28924714D01*
X64197000Y29355998D01*
X64197000Y33174169D01*
X64575588Y33552096D01*
X64846690Y34204982D01*
X64847307Y34911916D01*
X64577345Y35565274D01*
X64077904Y36065588D01*
X63425018Y36336690D01*
X62718084Y36337307D01*
X62075867Y36071948D01*
X62062281Y36092281D01*
X61772188Y36286116D01*
X61430000Y36354181D01*
X59630000Y36354181D01*
X59287812Y36286116D01*
X58997719Y36092281D01*
X58803884Y35802188D01*
X58735819Y35460000D01*
X58735819Y33660000D01*
X58803884Y33317812D01*
X58997719Y33027719D01*
X59287812Y32833884D01*
X59403000Y32810972D01*
X59403000Y30737973D01*
X59344182Y30698672D01*
X58980654Y30154614D01*
X58853000Y29512854D01*
X58853000Y29447146D01*
X58980654Y28805386D01*
X59344182Y28261328D01*
X59888240Y27897800D01*
X59996458Y27876274D01*
X58387183Y26266999D01*
X44860817Y26266999D01*
X45206891Y26613072D01*
X45622112Y26612710D01*
X46238703Y26867480D01*
X46710862Y27338816D01*
X46966708Y27954961D01*
X46967290Y28622112D01*
X46712520Y29238703D01*
X46241184Y29710862D01*
X45625039Y29966708D01*
X44957888Y29967290D01*
X44341297Y29712520D01*
X43869138Y29241184D01*
X43613292Y28625039D01*
X43612927Y28206745D01*
X43473182Y28067000D01*
X41457071Y28067000D01*
X41395818Y28158672D01*
X41307957Y28217379D01*
X41251212Y28502654D01*
X41006909Y28868279D01*
X40338278Y29536910D01*
X39972653Y29781213D01*
X39541369Y29867001D01*
X26645999Y29867001D01*
X26245226Y29787282D01*
X26214715Y29781213D01*
X25849090Y29536910D01*
X24973090Y28660910D01*
X24965044Y28648868D01*
X24328240Y28522200D01*
X23784182Y28158672D01*
X23700000Y28032685D01*
X23615818Y28158672D01*
X23071760Y28522200D01*
X22430000Y28649854D01*
X21788240Y28522200D01*
X21244182Y28158672D01*
X20880654Y27614614D01*
X20753000Y26972854D01*
X20753000Y26907146D01*
X20880654Y26265386D01*
X20949734Y26162000D01*
X20592919Y26162000D01*
X20161635Y26076212D01*
X19796010Y25831909D01*
X17823091Y23858990D01*
X17578788Y23493365D01*
X17517001Y23182742D01*
X17364993Y23081173D01*
X16990626Y22520894D01*
X16859166Y21860000D01*
X16990626Y21199106D01*
X17364993Y20638827D01*
X17925272Y20264460D01*
X18586166Y20133000D01*
X18653834Y20133000D01*
X19314728Y20264460D01*
X19875007Y20638827D01*
X19890000Y20661266D01*
X19904993Y20638827D01*
X19978068Y20590000D01*
X19904993Y20541173D01*
X19530626Y19980894D01*
X19399166Y19320000D01*
X19530626Y18659106D01*
X19904993Y18098827D01*
X20465272Y17724460D01*
X21033000Y17611532D01*
X21033000Y15948468D01*
X20465272Y15835540D01*
X19904993Y15461173D01*
X19890000Y15438734D01*
X19875007Y15461173D01*
X19801932Y15510000D01*
X19875007Y15558827D01*
X20249374Y16119106D01*
X20380834Y16780000D01*
X20249374Y17440894D01*
X19875007Y18001173D01*
X19314728Y18375540D01*
X18653834Y18507000D01*
X18586166Y18507000D01*
X17925272Y18375540D01*
X17364993Y18001173D01*
X17284311Y17880424D01*
X17058189Y17835445D01*
X16986634Y17821212D01*
X16621009Y17576909D01*
X13473070Y14428969D01*
X13228767Y14063344D01*
X13142979Y13632060D01*
X1550000Y13632060D01*
X1550000Y35460000D01*
X2855819Y35460000D01*
X2855819Y33660000D01*
X2923884Y33317812D01*
X3117719Y33027719D01*
X3407812Y32833884D01*
X3523000Y32810972D01*
X3523000Y30737973D01*
X3464182Y30698672D01*
X3100654Y30154614D01*
X2973000Y29512854D01*
X2973000Y29447146D01*
X3100654Y28805386D01*
X3464182Y28261328D01*
X4008240Y27897800D01*
X4650000Y27770146D01*
X5291760Y27897800D01*
X5835818Y28261328D01*
X6199346Y28805386D01*
X6327000Y29447146D01*
X6327000Y29512854D01*
X6199346Y30154614D01*
X5835818Y30698672D01*
X5777000Y30737973D01*
X5777000Y32810972D01*
X5892188Y32833884D01*
X6182281Y33027719D01*
X6196203Y33048554D01*
X6834982Y32783310D01*
X7373342Y32782840D01*
X8298091Y31858091D01*
X8663716Y31613788D01*
X9095000Y31528000D01*
X24335000Y31528000D01*
X24766284Y31613788D01*
X25131909Y31858091D01*
X25766910Y32493091D01*
X26011212Y32858716D01*
X26097000Y33290000D01*
X26097000Y33302027D01*
X26155818Y33341328D01*
X26240000Y33467315D01*
X26324182Y33341328D01*
X26868240Y32977800D01*
X27510000Y32850146D01*
X28151760Y32977800D01*
X28695818Y33341328D01*
X28780000Y33467315D01*
X28864182Y33341328D01*
X29408240Y32977800D01*
X30050000Y32850146D01*
X30691760Y32977800D01*
X31235818Y33341328D01*
X31320000Y33467315D01*
X31404182Y33341328D01*
X31948240Y32977800D01*
X32590000Y32850146D01*
X33231760Y32977800D01*
X33775818Y33341328D01*
X33860000Y33467315D01*
X33944182Y33341328D01*
X34488240Y32977800D01*
X35130000Y32850146D01*
X35771760Y32977800D01*
X36315818Y33341328D01*
X36400000Y33467315D01*
X36484182Y33341328D01*
X37028240Y32977800D01*
X37670000Y32850146D01*
X38311760Y32977800D01*
X38703150Y33239319D01*
X38777719Y33127719D01*
X39067812Y32933884D01*
X39410000Y32865819D01*
X41010000Y32865819D01*
X41352188Y32933884D01*
X41642281Y33127719D01*
X41836116Y33417812D01*
X41852696Y33501167D01*
X41941284Y33518788D01*
X42306909Y33763091D01*
X52816820Y44273001D01*
X53655819Y44273001D01*
X53655819Y42550000D01*
X53723884Y42207812D01*
X53917719Y41917719D01*
X54207812Y41723884D01*
X54323000Y41700972D01*
X54323000Y39627973D01*
X54264182Y39588672D01*
X53900654Y39044614D01*
X53773000Y38402854D01*
X53773000Y38337146D01*
X53900654Y37695386D01*
X54264182Y37151328D01*
X54808240Y36787800D01*
X55450000Y36660146D01*
X56091760Y36787800D01*
X56635818Y37151328D01*
X56999346Y37695386D01*
X57127000Y38337146D01*
X57127000Y38402854D01*
X56999346Y39044614D01*
X56635818Y39588672D01*
X56577000Y39627973D01*
X56577000Y41700972D01*
X56692188Y41723884D01*
X56982281Y41917719D01*
X56996203Y41938554D01*
X57634982Y41673310D01*
X58341916Y41672693D01*
X58995274Y41942655D01*
X59495588Y42442096D01*
X59766690Y43094982D01*
X59767307Y43801916D01*
X59497345Y44455274D01*
X59088807Y44864526D01*
X59031212Y45154076D01*
X58786909Y45519701D01*
X58109700Y46196910D01*
X57744075Y46441213D01*
X57312791Y46527001D01*
X52350001Y46527001D01*
X51990271Y46455446D01*
X51918716Y46441213D01*
X51553091Y46196910D01*
X49334600Y43978419D01*
X49379346Y44045386D01*
X49507000Y44687146D01*
X49507000Y44752854D01*
X49379346Y45394614D01*
X49015818Y45938672D01*
X48957000Y45977973D01*
X48957000Y48685972D01*
X49072188Y48708884D01*
X49362281Y48902719D01*
X49376203Y48923554D01*
X50014982Y48658310D01*
X50721916Y48657693D01*
X51375274Y48927655D01*
X51875588Y49427096D01*
X52146690Y50079982D01*
X52147307Y50786916D01*
X51877345Y51440274D01*
X51808284Y51509456D01*
X59322571Y51509456D01*
X59698877Y50598725D01*
X60395060Y49901326D01*
X61305133Y49523431D01*
X62290544Y49522571D01*
X63201275Y49898877D01*
X63898674Y50595060D01*
X64276569Y51505133D01*
X64277429Y52490544D01*
X63901123Y53401275D01*
X63204940Y54098674D01*
X62294867Y54476569D01*
X61309456Y54477429D01*
X60398725Y54101123D01*
X59701326Y53404940D01*
X59323431Y52494867D01*
X59322571Y51509456D01*
X51808284Y51509456D01*
X51468807Y51849526D01*
X51411212Y52139076D01*
X51166909Y52504701D01*
X50169701Y53501909D01*
X49804076Y53746212D01*
X49372792Y53832000D01*
X46499998Y53832000D01*
X46068714Y53746212D01*
X45703088Y53501909D01*
X44288091Y52086911D01*
X44043788Y51721286D01*
X43958000Y51290002D01*
X43958000Y43573189D01*
X36873091Y36488279D01*
X36628788Y36122654D01*
X36572043Y35837379D01*
X36484182Y35778672D01*
X36400000Y35652685D01*
X36315818Y35778672D01*
X36257000Y35817973D01*
X36257000Y42224180D01*
X41641910Y47609089D01*
X41886212Y47974714D01*
X41972000Y48405998D01*
X41972000Y52224169D01*
X42350588Y52602096D01*
X42621690Y53254982D01*
X42622307Y53961916D01*
X42352345Y54615274D01*
X41852904Y55115588D01*
X41200018Y55386690D01*
X40493084Y55387307D01*
X39850867Y55121948D01*
X39837281Y55142281D01*
X39547188Y55336116D01*
X39205000Y55404181D01*
X37405000Y55404181D01*
X37062812Y55336116D01*
X36772719Y55142281D01*
X36578884Y54852188D01*
X36510819Y54510000D01*
X36510819Y52710000D01*
X36578884Y52367812D01*
X36772719Y52077719D01*
X37062812Y51883884D01*
X37178000Y51860972D01*
X37178000Y49787973D01*
X37119182Y49748672D01*
X36755654Y49204614D01*
X36628000Y48562854D01*
X36628000Y48497146D01*
X36755654Y47855386D01*
X37119182Y47311328D01*
X37663240Y46947800D01*
X37771458Y46926274D01*
X34333091Y43487907D01*
X34088788Y43122282D01*
X34003000Y42690998D01*
X34003000Y35817973D01*
X33944182Y35778672D01*
X33860000Y35652685D01*
X33775818Y35778672D01*
X33717000Y35817973D01*
X33717000Y50435000D01*
X33631212Y50866284D01*
X33386909Y51231909D01*
X31191840Y53426978D01*
X31192307Y53961916D01*
X30922345Y54615274D01*
X30422904Y55115588D01*
X29770018Y55386690D01*
X29063084Y55387307D01*
X28420867Y55121948D01*
X28407281Y55142281D01*
X28117188Y55336116D01*
X27775000Y55404181D01*
X25975000Y55404181D01*
X25632812Y55336116D01*
X25342719Y55142281D01*
X25148884Y54852188D01*
X25080819Y54510000D01*
X25080819Y52710000D01*
X25148884Y52367812D01*
X25342719Y52077719D01*
X25632812Y51883884D01*
X25748000Y51860972D01*
X25748000Y49787973D01*
X25689182Y49748672D01*
X25325654Y49204614D01*
X25198000Y48562854D01*
X25198000Y48497146D01*
X25325654Y47855386D01*
X25689182Y47311328D01*
X26233240Y46947800D01*
X26875000Y46820146D01*
X27516760Y46947800D01*
X28060818Y47311328D01*
X28424346Y47855386D01*
X28552000Y48497146D01*
X28552000Y48562854D01*
X28424346Y49204614D01*
X28060818Y49748672D01*
X28002000Y49787973D01*
X28002000Y51860972D01*
X28117188Y51883884D01*
X28407281Y52077719D01*
X28421203Y52098554D01*
X29059982Y51833310D01*
X29598342Y51832840D01*
X31463000Y49968182D01*
X31463000Y35817973D01*
X31404182Y35778672D01*
X31320000Y35652685D01*
X31235818Y35778672D01*
X31147957Y35837379D01*
X31091212Y36122654D01*
X31048808Y36186116D01*
X30846910Y36488279D01*
X30128278Y37206910D01*
X29762653Y37451213D01*
X29331369Y37537001D01*
X28468815Y37537001D01*
X21017000Y44988816D01*
X21017000Y49049169D01*
X21395588Y49427096D01*
X21666690Y50079982D01*
X21667307Y50786916D01*
X21397345Y51440274D01*
X20897904Y51940588D01*
X20245018Y52211690D01*
X19538084Y52212307D01*
X18895867Y51946948D01*
X18882281Y51967281D01*
X18592188Y52161116D01*
X18250000Y52229181D01*
X16450000Y52229181D01*
X16107812Y52161116D01*
X15817719Y51967281D01*
X15623884Y51677188D01*
X15555819Y51335000D01*
X15555819Y49535000D01*
X15623884Y49192812D01*
X15817719Y48902719D01*
X16107812Y48708884D01*
X16223000Y48685972D01*
X16223000Y45977973D01*
X16164182Y45938672D01*
X15800654Y45394614D01*
X15673000Y44752854D01*
X15673000Y44687146D01*
X15800654Y44045386D01*
X16046801Y43677001D01*
X14047198Y43677001D01*
X14047307Y43801916D01*
X13777345Y44455274D01*
X13277904Y44955588D01*
X12625018Y45226690D01*
X11918084Y45227307D01*
X11275867Y44961948D01*
X11262281Y44982281D01*
X10972188Y45176116D01*
X10630000Y45244181D01*
X8830000Y45244181D01*
X8487812Y45176116D01*
X8197719Y44982281D01*
X8003884Y44692188D01*
X7935819Y44350000D01*
X7935819Y42550000D01*
X8003884Y42207812D01*
X8197719Y41917719D01*
X8487812Y41723884D01*
X8603000Y41700972D01*
X8603000Y39640000D01*
X8688788Y39208716D01*
X8933091Y38843091D01*
X9331350Y38444832D01*
X9323000Y38402854D01*
X9323000Y38337146D01*
X9450654Y37695386D01*
X9814182Y37151328D01*
X10358240Y36787800D01*
X11000000Y36660146D01*
X11641760Y36787800D01*
X12185818Y37151328D01*
X12549346Y37695386D01*
X12677000Y38337146D01*
X12677000Y38402854D01*
X12549346Y39044614D01*
X12185818Y39588672D01*
X11641760Y39952200D01*
X11000000Y40079854D01*
X10903216Y40060602D01*
X10857000Y40106818D01*
X10857000Y41700972D01*
X10972188Y41723884D01*
X11262281Y41917719D01*
X11276203Y41938554D01*
X11914982Y41673310D01*
X12493247Y41672805D01*
X12738715Y41508789D01*
X13169999Y41423001D01*
X19627399Y41423001D01*
X24811978Y36238421D01*
X24328240Y36142200D01*
X23784182Y35778672D01*
X23420654Y35234614D01*
X23293000Y34592854D01*
X23293000Y34527146D01*
X23420654Y33885386D01*
X23489734Y33782000D01*
X9561818Y33782000D01*
X8966840Y34376978D01*
X8967307Y34911916D01*
X8697345Y35565274D01*
X8197904Y36065588D01*
X7545018Y36336690D01*
X6838084Y36337307D01*
X6195867Y36071948D01*
X6182281Y36092281D01*
X5892188Y36286116D01*
X5550000Y36354181D01*
X3750000Y36354181D01*
X3407812Y36286116D01*
X3117719Y36092281D01*
X2923884Y35802188D01*
X2855819Y35460000D01*
X1550000Y35460000D01*
X1550000Y51509456D01*
X3322571Y51509456D01*
X3698877Y50598725D01*
X4395060Y49901326D01*
X5305133Y49523431D01*
X6290544Y49522571D01*
X7201275Y49898877D01*
X7898674Y50595060D01*
X8276569Y51505133D01*
X8277429Y52490544D01*
X7901123Y53401275D01*
X7204940Y54098674D01*
X6294867Y54476569D01*
X5309456Y54477429D01*
X4398725Y54101123D01*
X3701326Y53404940D01*
X3323431Y52494867D01*
X3322571Y51509456D01*
X1550000Y51509456D01*
X1550000Y52270069D01*
X1895498Y54007005D01*
X2839779Y55420221D01*
X4252997Y56364502D01*
X5989931Y56710000D01*
X61730069Y56710000D01*
X63467005Y56364502D01*
M02*
