G04 #@! TF.GenerationSoftware,KiCad,Pcbnew,(2018-01-11 revision 6f2beeb)-master*
G04 #@! TF.CreationDate,2018-01-15T00:37:34-06:00*
G04 #@! TF.ProjectId,minivol_led_encoder,6D696E69766F6C5F6C65645F656E636F,rev?*
G04 #@! TF.SameCoordinates,Original*
G04 #@! TF.FileFunction,Copper,L2,Bot,Signal*
G04 #@! TF.FilePolarity,Positive*
%FSLAX46Y46*%
G04 Gerber Fmt 4.6, Leading zero omitted, Abs format (unit mm)*
G04 Created by KiCad (PCBNEW (2018-01-11 revision 6f2beeb)-master) date Monday, January 15, 2018 'AMt' 12:37:34 AM*
%MOMM*%
%LPD*%
G01*
G04 APERTURE LIST*
%ADD10C,1.600000*%
%ADD11C,1.800000*%
%ADD12R,1.800000X1.800000*%
%ADD13O,1.700000X1.700000*%
%ADD14R,1.700000X1.700000*%
%ADD15O,1.600000X1.600000*%
%ADD16R,1.600000X1.600000*%
%ADD17C,0.500000*%
%ADD18C,0.254000*%
G04 APERTURE END LIST*
D10*
X149225000Y-110490000D03*
X149225000Y-105490000D03*
X154305000Y-105490000D03*
X154305000Y-110490000D03*
X161290000Y-97710000D03*
X161290000Y-92710000D03*
D11*
X179070000Y-91440000D03*
D12*
X176530000Y-91440000D03*
D11*
X173990000Y-82550000D03*
D12*
X171450000Y-82550000D03*
X163830000Y-75565000D03*
D11*
X166370000Y-75565000D03*
D12*
X154305000Y-72390000D03*
D11*
X156845000Y-72390000D03*
X145415000Y-72390000D03*
D12*
X142875000Y-72390000D03*
D11*
X135890000Y-75565000D03*
D12*
X133350000Y-75565000D03*
X125730000Y-82550000D03*
D11*
X128270000Y-82550000D03*
D12*
X120650000Y-91440000D03*
D11*
X123190000Y-91440000D03*
D13*
X134620000Y-104140000D03*
X137160000Y-104140000D03*
X134620000Y-106680000D03*
X137160000Y-106680000D03*
X134620000Y-109220000D03*
X137160000Y-109220000D03*
X134620000Y-111760000D03*
X137160000Y-111760000D03*
X134620000Y-114300000D03*
X137160000Y-114300000D03*
X134620000Y-116840000D03*
D14*
X137160000Y-116840000D03*
D13*
X159385000Y-114300000D03*
X156845000Y-114300000D03*
X154305000Y-114300000D03*
X151765000Y-114300000D03*
X149225000Y-114300000D03*
D14*
X146685000Y-114300000D03*
D15*
X176530000Y-96520000D03*
D10*
X176530000Y-104140000D03*
X171450000Y-95250000D03*
D15*
X171450000Y-87630000D03*
X163830000Y-81280000D03*
D10*
X163830000Y-88900000D03*
X154305000Y-85090000D03*
D15*
X154305000Y-77470000D03*
X142875000Y-77470000D03*
D10*
X142875000Y-85090000D03*
X133350000Y-88900000D03*
D15*
X133350000Y-81280000D03*
X127000000Y-87630000D03*
D10*
X127000000Y-95250000D03*
X120650000Y-104140000D03*
D15*
X120650000Y-96520000D03*
X156210000Y-99060000D03*
X138430000Y-91440000D03*
X153670000Y-99060000D03*
X140970000Y-91440000D03*
X151130000Y-99060000D03*
X143510000Y-91440000D03*
X148590000Y-99060000D03*
X146050000Y-91440000D03*
X146050000Y-99060000D03*
X148590000Y-91440000D03*
X143510000Y-99060000D03*
X151130000Y-91440000D03*
X140970000Y-99060000D03*
X153670000Y-91440000D03*
X138430000Y-99060000D03*
D16*
X156210000Y-91440000D03*
D17*
X149225000Y-114300000D02*
X149225000Y-115502081D01*
X149225000Y-115502081D02*
X144787070Y-119940011D01*
X144787070Y-119940011D02*
X134750149Y-119940011D01*
X134750149Y-119940011D02*
X132769999Y-117959861D01*
X132769999Y-117959861D02*
X132769999Y-114947920D01*
X132769999Y-114947920D02*
X133417919Y-114300000D01*
X133417919Y-114300000D02*
X134620000Y-114300000D01*
X149225000Y-114300000D02*
X149225000Y-110490000D01*
X145822612Y-122440031D02*
X133714607Y-122440031D01*
X133714607Y-122440031D02*
X130269979Y-118995403D01*
X130269979Y-118995403D02*
X130269979Y-112367940D01*
X130269979Y-112367940D02*
X133417919Y-109220000D01*
X133417919Y-109220000D02*
X134620000Y-109220000D01*
X157480000Y-118110000D02*
X150152642Y-118110000D01*
X150152642Y-118110000D02*
X145822612Y-122440031D01*
X159385000Y-116205000D02*
X157480000Y-118110000D01*
X159385000Y-114300000D02*
X159385000Y-116205000D01*
X154305000Y-105490000D02*
X159385000Y-110570000D01*
X159385000Y-110570000D02*
X159385000Y-114300000D01*
X149225000Y-105490000D02*
X154305000Y-105490000D01*
X137160000Y-116840000D02*
X140210998Y-116840000D01*
X140210998Y-116840000D02*
X148360999Y-108689999D01*
X148360999Y-108689999D02*
X152504999Y-108689999D01*
X152504999Y-108689999D02*
X154305000Y-110490000D01*
X154305000Y-110490000D02*
X151765000Y-113030000D01*
X151765000Y-113030000D02*
X151765000Y-114300000D01*
X140970000Y-100965000D02*
X136592919Y-100965000D01*
X136592919Y-100965000D02*
X134620000Y-102937919D01*
X134620000Y-102937919D02*
X134620000Y-104140000D01*
X140970000Y-99060000D02*
X140970000Y-100965000D01*
X156210000Y-99060000D02*
X156210000Y-97928630D01*
X156210000Y-97928630D02*
X155541369Y-97259999D01*
X155541369Y-97259999D02*
X142645999Y-97259999D01*
X142645999Y-97259999D02*
X141769999Y-98135999D01*
X141769999Y-98135999D02*
X141769999Y-98260001D01*
X141769999Y-98260001D02*
X140970000Y-99060000D01*
X156210000Y-99060000D02*
X159940000Y-99060000D01*
X159940000Y-99060000D02*
X161290000Y-97710000D01*
X147790001Y-101267219D02*
X139837220Y-109220000D01*
X139837220Y-109220000D02*
X137160000Y-109220000D01*
X148590000Y-99060000D02*
X147790001Y-99859999D01*
X147790001Y-99859999D02*
X147790001Y-101267219D01*
X162029999Y-100860001D02*
X173350001Y-89539999D01*
X173350001Y-89539999D02*
X178442791Y-89539999D01*
X178442791Y-89539999D02*
X179070000Y-90167208D01*
X179070000Y-90167208D02*
X179070000Y-91440000D01*
X153670000Y-99060000D02*
X153670000Y-100191370D01*
X153670000Y-100191370D02*
X154338631Y-100860001D01*
X154338631Y-100860001D02*
X162029999Y-100860001D01*
X176530000Y-91440000D02*
X176530000Y-96520000D01*
X173990000Y-82550000D02*
X173990000Y-81277208D01*
X173312791Y-80599999D02*
X168350001Y-80599999D01*
X173990000Y-81277208D02*
X173312791Y-80599999D01*
X168350001Y-80599999D02*
X157510000Y-91440000D01*
X157510000Y-91440000D02*
X156210000Y-91440000D01*
X171450000Y-82550000D02*
X171450000Y-87630000D01*
X163830000Y-81280000D02*
X163830000Y-76200000D01*
X153670000Y-91440000D02*
X153670000Y-90308630D01*
X153670000Y-90308630D02*
X161879999Y-82098631D01*
X162089999Y-74249999D02*
X165692791Y-74249999D01*
X161879999Y-82098631D02*
X161879999Y-74459999D01*
X161879999Y-74459999D02*
X162089999Y-74249999D01*
X166370000Y-74927208D02*
X166370000Y-76200000D01*
X165692791Y-74249999D02*
X166370000Y-74927208D01*
X154305000Y-77470000D02*
X154305000Y-72390000D01*
X151130000Y-91440000D02*
X151130000Y-83309002D01*
X151130000Y-83309002D02*
X156845000Y-77594002D01*
X156845000Y-77594002D02*
X156845000Y-72390000D01*
X148590000Y-91440000D02*
X148590000Y-75565000D01*
X148590000Y-75565000D02*
X145415000Y-72390000D01*
X142875000Y-77470000D02*
X142875000Y-72390000D01*
X146050000Y-91440000D02*
X146050000Y-90308630D01*
X144001997Y-89589999D02*
X135890000Y-81478002D01*
X135890000Y-81478002D02*
X135890000Y-76200000D01*
X145331369Y-89589999D02*
X144001997Y-89589999D01*
X146050000Y-90308630D02*
X145331369Y-89589999D01*
X133350000Y-81280000D02*
X133350000Y-76200000D01*
X127000000Y-87630000D02*
X125730000Y-86360000D01*
X125730000Y-86360000D02*
X125730000Y-82550000D01*
X142710001Y-90065783D02*
X136094217Y-83449999D01*
X136094217Y-83449999D02*
X129169999Y-83449999D01*
X129169999Y-83449999D02*
X128270000Y-82550000D01*
X143510000Y-91440000D02*
X142710001Y-90640001D01*
X142710001Y-90640001D02*
X142710001Y-90065783D01*
X120650000Y-96520000D02*
X120650000Y-91440000D01*
X140970000Y-92710000D02*
X140335000Y-93345000D01*
X140335000Y-93345000D02*
X125095000Y-93345000D01*
X125095000Y-93345000D02*
X123190000Y-91440000D01*
X140970000Y-91440000D02*
X140970000Y-92710000D01*
X146050000Y-100965000D02*
X140335000Y-106680000D01*
X140335000Y-106680000D02*
X137160000Y-106680000D01*
X146050000Y-99060000D02*
X146050000Y-100965000D01*
X143510000Y-99060000D02*
X143510000Y-101102220D01*
X143510000Y-101102220D02*
X140472220Y-104140000D01*
X140472220Y-104140000D02*
X137160000Y-104140000D01*
X139065000Y-111760000D02*
X137160000Y-111760000D01*
X150330001Y-100494999D02*
X139065000Y-111760000D01*
X151130000Y-99060000D02*
X150330001Y-99859999D01*
X150330001Y-99859999D02*
X150330001Y-100494999D01*
X145925011Y-107439989D02*
X139065000Y-114300000D01*
X139065000Y-114300000D02*
X137160000Y-114300000D01*
X156845000Y-114300000D02*
X156845000Y-110365998D01*
X156845000Y-110365998D02*
X153918991Y-107439989D01*
X153918991Y-107439989D02*
X145925011Y-107439989D01*
X153035000Y-116840000D02*
X149654861Y-116840000D01*
X149654861Y-116840000D02*
X145304841Y-121190021D01*
X145304841Y-121190021D02*
X134232378Y-121190021D01*
X131519989Y-118477632D02*
X131519989Y-113657930D01*
X131519989Y-113657930D02*
X133417919Y-111760000D01*
X134232378Y-121190021D02*
X131519989Y-118477632D01*
X133417919Y-111760000D02*
X134620000Y-111760000D01*
X154305000Y-115570000D02*
X153035000Y-116840000D01*
X154305000Y-114300000D02*
X154305000Y-115570000D01*
X146685000Y-114300000D02*
X146685000Y-115650000D01*
X146685000Y-115650000D02*
X143644999Y-118690001D01*
X143644999Y-118690001D02*
X135267920Y-118690001D01*
X135267920Y-118690001D02*
X134620000Y-118042081D01*
X134620000Y-118042081D02*
X134620000Y-116840000D01*
D18*
G36*
X179467005Y-69635498D02*
X180880221Y-70579779D01*
X181824502Y-71992997D01*
X182170000Y-73729931D01*
X182170000Y-120580069D01*
X181824502Y-122317003D01*
X180880221Y-123730221D01*
X179467005Y-124674502D01*
X177730069Y-125020000D01*
X121989931Y-125020000D01*
X120252997Y-124674502D01*
X118839779Y-123730221D01*
X117895498Y-122317005D01*
X117550000Y-120580069D01*
X117550000Y-120490544D01*
X119322571Y-120490544D01*
X119698877Y-121401275D01*
X120395060Y-122098674D01*
X121305133Y-122476569D01*
X122290544Y-122477429D01*
X123201275Y-122101123D01*
X123898674Y-121404940D01*
X124276569Y-120494867D01*
X124277429Y-119509456D01*
X123901123Y-118598725D01*
X123204940Y-117901326D01*
X122294867Y-117523431D01*
X121309456Y-117522571D01*
X120398725Y-117898877D01*
X119701326Y-118595060D01*
X119323431Y-119505133D01*
X119322571Y-120490544D01*
X117550000Y-120490544D01*
X117550000Y-90540000D01*
X118855819Y-90540000D01*
X118855819Y-92340000D01*
X118923884Y-92682188D01*
X119117719Y-92972281D01*
X119407812Y-93166116D01*
X119523000Y-93189028D01*
X119523000Y-95262027D01*
X119464182Y-95301328D01*
X119100654Y-95845386D01*
X118973000Y-96487146D01*
X118973000Y-96552854D01*
X119100654Y-97194614D01*
X119464182Y-97738672D01*
X120008240Y-98102200D01*
X120650000Y-98229854D01*
X121291760Y-98102200D01*
X121835818Y-97738672D01*
X122199346Y-97194614D01*
X122327000Y-96552854D01*
X122327000Y-96487146D01*
X122199346Y-95845386D01*
X121835818Y-95301328D01*
X121777000Y-95262027D01*
X121777000Y-93189028D01*
X121892188Y-93166116D01*
X122182281Y-92972281D01*
X122196203Y-92951446D01*
X122834982Y-93216690D01*
X123373342Y-93217160D01*
X124298091Y-94141909D01*
X124663716Y-94386212D01*
X125095000Y-94472000D01*
X140335000Y-94472000D01*
X140766284Y-94386212D01*
X141131909Y-94141909D01*
X141766910Y-93506909D01*
X142011212Y-93141284D01*
X142097000Y-92710000D01*
X142097000Y-92697973D01*
X142155818Y-92658672D01*
X142240000Y-92532685D01*
X142324182Y-92658672D01*
X142868240Y-93022200D01*
X143510000Y-93149854D01*
X144151760Y-93022200D01*
X144695818Y-92658672D01*
X144780000Y-92532685D01*
X144864182Y-92658672D01*
X145408240Y-93022200D01*
X146050000Y-93149854D01*
X146691760Y-93022200D01*
X147235818Y-92658672D01*
X147320000Y-92532685D01*
X147404182Y-92658672D01*
X147948240Y-93022200D01*
X148590000Y-93149854D01*
X149231760Y-93022200D01*
X149775818Y-92658672D01*
X149860000Y-92532685D01*
X149944182Y-92658672D01*
X150488240Y-93022200D01*
X151130000Y-93149854D01*
X151771760Y-93022200D01*
X152315818Y-92658672D01*
X152400000Y-92532685D01*
X152484182Y-92658672D01*
X153028240Y-93022200D01*
X153670000Y-93149854D01*
X154311760Y-93022200D01*
X154703150Y-92760681D01*
X154777719Y-92872281D01*
X155067812Y-93066116D01*
X155410000Y-93134181D01*
X157010000Y-93134181D01*
X157352188Y-93066116D01*
X157642281Y-92872281D01*
X157836116Y-92582188D01*
X157852696Y-92498833D01*
X157941284Y-92481212D01*
X158306909Y-92236909D01*
X168816820Y-81726999D01*
X169655819Y-81726999D01*
X169655819Y-83450000D01*
X169723884Y-83792188D01*
X169917719Y-84082281D01*
X170207812Y-84276116D01*
X170323000Y-84299028D01*
X170323000Y-86372027D01*
X170264182Y-86411328D01*
X169900654Y-86955386D01*
X169773000Y-87597146D01*
X169773000Y-87662854D01*
X169900654Y-88304614D01*
X170264182Y-88848672D01*
X170808240Y-89212200D01*
X171450000Y-89339854D01*
X172082050Y-89214132D01*
X162764733Y-98531449D01*
X162966708Y-98045039D01*
X162967290Y-97377888D01*
X162712520Y-96761297D01*
X162241184Y-96289138D01*
X161625039Y-96033292D01*
X160957888Y-96032710D01*
X160341297Y-96287480D01*
X159869138Y-96758816D01*
X159613292Y-97374961D01*
X159612927Y-97793255D01*
X159473182Y-97933000D01*
X157457071Y-97933000D01*
X157395818Y-97841328D01*
X157307957Y-97782621D01*
X157251212Y-97497346D01*
X157006909Y-97131721D01*
X156338278Y-96463090D01*
X155972653Y-96218787D01*
X155541369Y-96132999D01*
X142645999Y-96132999D01*
X142214715Y-96218787D01*
X141849090Y-96463090D01*
X140973090Y-97339090D01*
X140965044Y-97351132D01*
X140328240Y-97477800D01*
X139784182Y-97841328D01*
X139700000Y-97967315D01*
X139615818Y-97841328D01*
X139071760Y-97477800D01*
X138430000Y-97350146D01*
X137788240Y-97477800D01*
X137244182Y-97841328D01*
X136880654Y-98385386D01*
X136753000Y-99027146D01*
X136753000Y-99092854D01*
X136880654Y-99734614D01*
X136949734Y-99838000D01*
X136592919Y-99838000D01*
X136161635Y-99923788D01*
X135796010Y-100168091D01*
X133823091Y-102141010D01*
X133578788Y-102506635D01*
X133517001Y-102817258D01*
X133364993Y-102918827D01*
X132990626Y-103479106D01*
X132859166Y-104140000D01*
X132990626Y-104800894D01*
X133364993Y-105361173D01*
X133925272Y-105735540D01*
X134586166Y-105867000D01*
X134653834Y-105867000D01*
X135314728Y-105735540D01*
X135875007Y-105361173D01*
X135890000Y-105338734D01*
X135904993Y-105361173D01*
X135978068Y-105410000D01*
X135904993Y-105458827D01*
X135530626Y-106019106D01*
X135399166Y-106680000D01*
X135530626Y-107340894D01*
X135904993Y-107901173D01*
X136465272Y-108275540D01*
X137033000Y-108388468D01*
X137033000Y-110051532D01*
X136465272Y-110164460D01*
X135904993Y-110538827D01*
X135890000Y-110561266D01*
X135875007Y-110538827D01*
X135801932Y-110490000D01*
X135875007Y-110441173D01*
X136249374Y-109880894D01*
X136380834Y-109220000D01*
X136249374Y-108559106D01*
X135875007Y-107998827D01*
X135314728Y-107624460D01*
X134653834Y-107493000D01*
X134586166Y-107493000D01*
X133925272Y-107624460D01*
X133364993Y-107998827D01*
X133284311Y-108119576D01*
X133058189Y-108164555D01*
X132986634Y-108178788D01*
X132621009Y-108423091D01*
X129473070Y-111571031D01*
X129228767Y-111936656D01*
X129142979Y-112367940D01*
X129142979Y-118995403D01*
X129228767Y-119426687D01*
X129473070Y-119792312D01*
X132917698Y-123236941D01*
X133283323Y-123481243D01*
X133714607Y-123567031D01*
X145822612Y-123567031D01*
X146253896Y-123481243D01*
X146619521Y-123236940D01*
X149365917Y-120490544D01*
X175322571Y-120490544D01*
X175698877Y-121401275D01*
X176395060Y-122098674D01*
X177305133Y-122476569D01*
X178290544Y-122477429D01*
X179201275Y-122101123D01*
X179898674Y-121404940D01*
X180276569Y-120494867D01*
X180277429Y-119509456D01*
X179901123Y-118598725D01*
X179204940Y-117901326D01*
X178294867Y-117523431D01*
X177309456Y-117522571D01*
X176398725Y-117898877D01*
X175701326Y-118595060D01*
X175323431Y-119505133D01*
X175322571Y-120490544D01*
X149365917Y-120490544D01*
X150619461Y-119237000D01*
X157480000Y-119237000D01*
X157911284Y-119151212D01*
X158276909Y-118906909D01*
X160181909Y-117001909D01*
X160426212Y-116636284D01*
X160512000Y-116205000D01*
X160512000Y-115617931D01*
X160606173Y-115555007D01*
X160980540Y-114994728D01*
X161112000Y-114333834D01*
X161112000Y-114266166D01*
X160980540Y-113605272D01*
X160606173Y-113044993D01*
X160512000Y-112982069D01*
X160512000Y-110570000D01*
X160426212Y-110138716D01*
X160181909Y-109773091D01*
X155981928Y-105573110D01*
X155982290Y-105157888D01*
X155727520Y-104541297D01*
X155256184Y-104069138D01*
X154640039Y-103813292D01*
X153972888Y-103812710D01*
X153356297Y-104067480D01*
X153060261Y-104363000D01*
X150469534Y-104363000D01*
X150176184Y-104069138D01*
X149560039Y-103813292D01*
X148892888Y-103812710D01*
X148404177Y-104014641D01*
X151126910Y-101291908D01*
X151371213Y-100926283D01*
X151384397Y-100860001D01*
X151413548Y-100713453D01*
X151771760Y-100642200D01*
X152315818Y-100278672D01*
X152400000Y-100152685D01*
X152484182Y-100278672D01*
X152572043Y-100337379D01*
X152628788Y-100622654D01*
X152873091Y-100988279D01*
X153541722Y-101656910D01*
X153907347Y-101901213D01*
X154338631Y-101987001D01*
X162029999Y-101987001D01*
X162461283Y-101901213D01*
X162826908Y-101656910D01*
X173816820Y-90666999D01*
X174735819Y-90666999D01*
X174735819Y-92340000D01*
X174803884Y-92682188D01*
X174997719Y-92972281D01*
X175287812Y-93166116D01*
X175403000Y-93189028D01*
X175403000Y-95262027D01*
X175344182Y-95301328D01*
X174980654Y-95845386D01*
X174853000Y-96487146D01*
X174853000Y-96552854D01*
X174980654Y-97194614D01*
X175344182Y-97738672D01*
X175888240Y-98102200D01*
X176530000Y-98229854D01*
X177171760Y-98102200D01*
X177715818Y-97738672D01*
X178079346Y-97194614D01*
X178207000Y-96552854D01*
X178207000Y-96487146D01*
X178079346Y-95845386D01*
X177715818Y-95301328D01*
X177657000Y-95262027D01*
X177657000Y-93189028D01*
X177772188Y-93166116D01*
X178062281Y-92972281D01*
X178076203Y-92951446D01*
X178714982Y-93216690D01*
X179421916Y-93217307D01*
X180075274Y-92947345D01*
X180575588Y-92447904D01*
X180846690Y-91795018D01*
X180847307Y-91088084D01*
X180577345Y-90434726D01*
X180168807Y-90025474D01*
X180111212Y-89735924D01*
X180111212Y-89735923D01*
X179866909Y-89370298D01*
X179239700Y-88743090D01*
X178874075Y-88498787D01*
X178442791Y-88412999D01*
X173350001Y-88412999D01*
X172918717Y-88498787D01*
X172829991Y-88558072D01*
X172999346Y-88304614D01*
X173127000Y-87662854D01*
X173127000Y-87597146D01*
X172999346Y-86955386D01*
X172635818Y-86411328D01*
X172577000Y-86372027D01*
X172577000Y-84299028D01*
X172692188Y-84276116D01*
X172982281Y-84082281D01*
X172996203Y-84061446D01*
X173634982Y-84326690D01*
X174341916Y-84327307D01*
X174995274Y-84057345D01*
X175495588Y-83557904D01*
X175766690Y-82905018D01*
X175767307Y-82198084D01*
X175497345Y-81544726D01*
X175088807Y-81135474D01*
X175031212Y-80845924D01*
X174786909Y-80480299D01*
X174109700Y-79803090D01*
X173744075Y-79558787D01*
X173312791Y-79472999D01*
X168350001Y-79472999D01*
X167990271Y-79544554D01*
X167918716Y-79558787D01*
X167553091Y-79803090D01*
X165334600Y-82021581D01*
X165379346Y-81954614D01*
X165507000Y-81312854D01*
X165507000Y-81247146D01*
X165379346Y-80605386D01*
X165015818Y-80061328D01*
X164957000Y-80022027D01*
X164957000Y-77314028D01*
X165072188Y-77291116D01*
X165362281Y-77097281D01*
X165376203Y-77076446D01*
X166014982Y-77341690D01*
X166721916Y-77342307D01*
X167375274Y-77072345D01*
X167875588Y-76572904D01*
X168146690Y-75920018D01*
X168147307Y-75213084D01*
X167877345Y-74559726D01*
X167808284Y-74490544D01*
X175322571Y-74490544D01*
X175698877Y-75401275D01*
X176395060Y-76098674D01*
X177305133Y-76476569D01*
X178290544Y-76477429D01*
X179201275Y-76101123D01*
X179898674Y-75404940D01*
X180276569Y-74494867D01*
X180277429Y-73509456D01*
X179901123Y-72598725D01*
X179204940Y-71901326D01*
X178294867Y-71523431D01*
X177309456Y-71522571D01*
X176398725Y-71898877D01*
X175701326Y-72595060D01*
X175323431Y-73505133D01*
X175322571Y-74490544D01*
X167808284Y-74490544D01*
X167377904Y-74059412D01*
X166895860Y-73859250D01*
X166489700Y-73453090D01*
X166124075Y-73208787D01*
X165692791Y-73122999D01*
X162089999Y-73122999D01*
X161658715Y-73208787D01*
X161293090Y-73453090D01*
X161083090Y-73663090D01*
X160838787Y-74028715D01*
X160752999Y-74459999D01*
X160752999Y-81631813D01*
X152873091Y-89511721D01*
X152628788Y-89877346D01*
X152572043Y-90162621D01*
X152484182Y-90221328D01*
X152400000Y-90347315D01*
X152315818Y-90221328D01*
X152257000Y-90182027D01*
X152257000Y-83775820D01*
X157641910Y-78390911D01*
X157886212Y-78025286D01*
X157972000Y-77594002D01*
X157972000Y-73775831D01*
X158350588Y-73397904D01*
X158621690Y-72745018D01*
X158622307Y-72038084D01*
X158352345Y-71384726D01*
X157852904Y-70884412D01*
X157200018Y-70613310D01*
X156493084Y-70612693D01*
X155850867Y-70878052D01*
X155837281Y-70857719D01*
X155547188Y-70663884D01*
X155205000Y-70595819D01*
X153405000Y-70595819D01*
X153062812Y-70663884D01*
X152772719Y-70857719D01*
X152578884Y-71147812D01*
X152510819Y-71490000D01*
X152510819Y-73290000D01*
X152578884Y-73632188D01*
X152772719Y-73922281D01*
X153062812Y-74116116D01*
X153178000Y-74139028D01*
X153178000Y-76212027D01*
X153119182Y-76251328D01*
X152755654Y-76795386D01*
X152628000Y-77437146D01*
X152628000Y-77502854D01*
X152755654Y-78144614D01*
X153119182Y-78688672D01*
X153663240Y-79052200D01*
X153771458Y-79073726D01*
X150333091Y-82512093D01*
X150088788Y-82877718D01*
X150003000Y-83309002D01*
X150003000Y-90182027D01*
X149944182Y-90221328D01*
X149860000Y-90347315D01*
X149775818Y-90221328D01*
X149717000Y-90182027D01*
X149717000Y-75565000D01*
X149631212Y-75133716D01*
X149386909Y-74768091D01*
X147191840Y-72573022D01*
X147192307Y-72038084D01*
X146922345Y-71384726D01*
X146422904Y-70884412D01*
X145770018Y-70613310D01*
X145063084Y-70612693D01*
X144420867Y-70878052D01*
X144407281Y-70857719D01*
X144117188Y-70663884D01*
X143775000Y-70595819D01*
X141975000Y-70595819D01*
X141632812Y-70663884D01*
X141342719Y-70857719D01*
X141148884Y-71147812D01*
X141080819Y-71490000D01*
X141080819Y-73290000D01*
X141148884Y-73632188D01*
X141342719Y-73922281D01*
X141632812Y-74116116D01*
X141748000Y-74139028D01*
X141748000Y-76212027D01*
X141689182Y-76251328D01*
X141325654Y-76795386D01*
X141198000Y-77437146D01*
X141198000Y-77502854D01*
X141325654Y-78144614D01*
X141689182Y-78688672D01*
X142233240Y-79052200D01*
X142875000Y-79179854D01*
X143516760Y-79052200D01*
X144060818Y-78688672D01*
X144424346Y-78144614D01*
X144552000Y-77502854D01*
X144552000Y-77437146D01*
X144424346Y-76795386D01*
X144060818Y-76251328D01*
X144002000Y-76212027D01*
X144002000Y-74139028D01*
X144117188Y-74116116D01*
X144407281Y-73922281D01*
X144421203Y-73901446D01*
X145059982Y-74166690D01*
X145598342Y-74167160D01*
X147463000Y-76031818D01*
X147463000Y-90182027D01*
X147404182Y-90221328D01*
X147320000Y-90347315D01*
X147235818Y-90221328D01*
X147147957Y-90162621D01*
X147091212Y-89877346D01*
X147048808Y-89813884D01*
X146846910Y-89511721D01*
X146128278Y-88793090D01*
X145762653Y-88548787D01*
X145331369Y-88462999D01*
X144468815Y-88462999D01*
X137017000Y-81011184D01*
X137017000Y-76950831D01*
X137395588Y-76572904D01*
X137666690Y-75920018D01*
X137667307Y-75213084D01*
X137397345Y-74559726D01*
X136897904Y-74059412D01*
X136245018Y-73788310D01*
X135538084Y-73787693D01*
X134895867Y-74053052D01*
X134882281Y-74032719D01*
X134592188Y-73838884D01*
X134250000Y-73770819D01*
X132450000Y-73770819D01*
X132107812Y-73838884D01*
X131817719Y-74032719D01*
X131623884Y-74322812D01*
X131555819Y-74665000D01*
X131555819Y-76465000D01*
X131623884Y-76807188D01*
X131817719Y-77097281D01*
X132107812Y-77291116D01*
X132223000Y-77314028D01*
X132223000Y-80022027D01*
X132164182Y-80061328D01*
X131800654Y-80605386D01*
X131673000Y-81247146D01*
X131673000Y-81312854D01*
X131800654Y-81954614D01*
X132046801Y-82322999D01*
X130047198Y-82322999D01*
X130047307Y-82198084D01*
X129777345Y-81544726D01*
X129277904Y-81044412D01*
X128625018Y-80773310D01*
X127918084Y-80772693D01*
X127275867Y-81038052D01*
X127262281Y-81017719D01*
X126972188Y-80823884D01*
X126630000Y-80755819D01*
X124830000Y-80755819D01*
X124487812Y-80823884D01*
X124197719Y-81017719D01*
X124003884Y-81307812D01*
X123935819Y-81650000D01*
X123935819Y-83450000D01*
X124003884Y-83792188D01*
X124197719Y-84082281D01*
X124487812Y-84276116D01*
X124603000Y-84299028D01*
X124603000Y-86360000D01*
X124688788Y-86791284D01*
X124933091Y-87156909D01*
X125331350Y-87555168D01*
X125323000Y-87597146D01*
X125323000Y-87662854D01*
X125450654Y-88304614D01*
X125814182Y-88848672D01*
X126358240Y-89212200D01*
X127000000Y-89339854D01*
X127641760Y-89212200D01*
X128185818Y-88848672D01*
X128549346Y-88304614D01*
X128677000Y-87662854D01*
X128677000Y-87597146D01*
X128549346Y-86955386D01*
X128185818Y-86411328D01*
X127641760Y-86047800D01*
X127000000Y-85920146D01*
X126903216Y-85939398D01*
X126857000Y-85893182D01*
X126857000Y-84299028D01*
X126972188Y-84276116D01*
X127262281Y-84082281D01*
X127276203Y-84061446D01*
X127914982Y-84326690D01*
X128493247Y-84327195D01*
X128738715Y-84491211D01*
X129169999Y-84576999D01*
X135627399Y-84576999D01*
X140811978Y-89761579D01*
X140328240Y-89857800D01*
X139784182Y-90221328D01*
X139420654Y-90765386D01*
X139293000Y-91407146D01*
X139293000Y-91472854D01*
X139420654Y-92114614D01*
X139489734Y-92218000D01*
X125561818Y-92218000D01*
X124966840Y-91623022D01*
X124967307Y-91088084D01*
X124697345Y-90434726D01*
X124197904Y-89934412D01*
X123545018Y-89663310D01*
X122838084Y-89662693D01*
X122195867Y-89928052D01*
X122182281Y-89907719D01*
X121892188Y-89713884D01*
X121550000Y-89645819D01*
X119750000Y-89645819D01*
X119407812Y-89713884D01*
X119117719Y-89907719D01*
X118923884Y-90197812D01*
X118855819Y-90540000D01*
X117550000Y-90540000D01*
X117550000Y-74490544D01*
X119322571Y-74490544D01*
X119698877Y-75401275D01*
X120395060Y-76098674D01*
X121305133Y-76476569D01*
X122290544Y-76477429D01*
X123201275Y-76101123D01*
X123898674Y-75404940D01*
X124276569Y-74494867D01*
X124277429Y-73509456D01*
X123901123Y-72598725D01*
X123204940Y-71901326D01*
X122294867Y-71523431D01*
X121309456Y-71522571D01*
X120398725Y-71898877D01*
X119701326Y-72595060D01*
X119323431Y-73505133D01*
X119322571Y-74490544D01*
X117550000Y-74490544D01*
X117550000Y-73729931D01*
X117895498Y-71992995D01*
X118839779Y-70579779D01*
X120252997Y-69635498D01*
X121989931Y-69290000D01*
X177730069Y-69290000D01*
X179467005Y-69635498D01*
X179467005Y-69635498D01*
G37*
X179467005Y-69635498D02*
X180880221Y-70579779D01*
X181824502Y-71992997D01*
X182170000Y-73729931D01*
X182170000Y-120580069D01*
X181824502Y-122317003D01*
X180880221Y-123730221D01*
X179467005Y-124674502D01*
X177730069Y-125020000D01*
X121989931Y-125020000D01*
X120252997Y-124674502D01*
X118839779Y-123730221D01*
X117895498Y-122317005D01*
X117550000Y-120580069D01*
X117550000Y-120490544D01*
X119322571Y-120490544D01*
X119698877Y-121401275D01*
X120395060Y-122098674D01*
X121305133Y-122476569D01*
X122290544Y-122477429D01*
X123201275Y-122101123D01*
X123898674Y-121404940D01*
X124276569Y-120494867D01*
X124277429Y-119509456D01*
X123901123Y-118598725D01*
X123204940Y-117901326D01*
X122294867Y-117523431D01*
X121309456Y-117522571D01*
X120398725Y-117898877D01*
X119701326Y-118595060D01*
X119323431Y-119505133D01*
X119322571Y-120490544D01*
X117550000Y-120490544D01*
X117550000Y-90540000D01*
X118855819Y-90540000D01*
X118855819Y-92340000D01*
X118923884Y-92682188D01*
X119117719Y-92972281D01*
X119407812Y-93166116D01*
X119523000Y-93189028D01*
X119523000Y-95262027D01*
X119464182Y-95301328D01*
X119100654Y-95845386D01*
X118973000Y-96487146D01*
X118973000Y-96552854D01*
X119100654Y-97194614D01*
X119464182Y-97738672D01*
X120008240Y-98102200D01*
X120650000Y-98229854D01*
X121291760Y-98102200D01*
X121835818Y-97738672D01*
X122199346Y-97194614D01*
X122327000Y-96552854D01*
X122327000Y-96487146D01*
X122199346Y-95845386D01*
X121835818Y-95301328D01*
X121777000Y-95262027D01*
X121777000Y-93189028D01*
X121892188Y-93166116D01*
X122182281Y-92972281D01*
X122196203Y-92951446D01*
X122834982Y-93216690D01*
X123373342Y-93217160D01*
X124298091Y-94141909D01*
X124663716Y-94386212D01*
X125095000Y-94472000D01*
X140335000Y-94472000D01*
X140766284Y-94386212D01*
X141131909Y-94141909D01*
X141766910Y-93506909D01*
X142011212Y-93141284D01*
X142097000Y-92710000D01*
X142097000Y-92697973D01*
X142155818Y-92658672D01*
X142240000Y-92532685D01*
X142324182Y-92658672D01*
X142868240Y-93022200D01*
X143510000Y-93149854D01*
X144151760Y-93022200D01*
X144695818Y-92658672D01*
X144780000Y-92532685D01*
X144864182Y-92658672D01*
X145408240Y-93022200D01*
X146050000Y-93149854D01*
X146691760Y-93022200D01*
X147235818Y-92658672D01*
X147320000Y-92532685D01*
X147404182Y-92658672D01*
X147948240Y-93022200D01*
X148590000Y-93149854D01*
X149231760Y-93022200D01*
X149775818Y-92658672D01*
X149860000Y-92532685D01*
X149944182Y-92658672D01*
X150488240Y-93022200D01*
X151130000Y-93149854D01*
X151771760Y-93022200D01*
X152315818Y-92658672D01*
X152400000Y-92532685D01*
X152484182Y-92658672D01*
X153028240Y-93022200D01*
X153670000Y-93149854D01*
X154311760Y-93022200D01*
X154703150Y-92760681D01*
X154777719Y-92872281D01*
X155067812Y-93066116D01*
X155410000Y-93134181D01*
X157010000Y-93134181D01*
X157352188Y-93066116D01*
X157642281Y-92872281D01*
X157836116Y-92582188D01*
X157852696Y-92498833D01*
X157941284Y-92481212D01*
X158306909Y-92236909D01*
X168816820Y-81726999D01*
X169655819Y-81726999D01*
X169655819Y-83450000D01*
X169723884Y-83792188D01*
X169917719Y-84082281D01*
X170207812Y-84276116D01*
X170323000Y-84299028D01*
X170323000Y-86372027D01*
X170264182Y-86411328D01*
X169900654Y-86955386D01*
X169773000Y-87597146D01*
X169773000Y-87662854D01*
X169900654Y-88304614D01*
X170264182Y-88848672D01*
X170808240Y-89212200D01*
X171450000Y-89339854D01*
X172082050Y-89214132D01*
X162764733Y-98531449D01*
X162966708Y-98045039D01*
X162967290Y-97377888D01*
X162712520Y-96761297D01*
X162241184Y-96289138D01*
X161625039Y-96033292D01*
X160957888Y-96032710D01*
X160341297Y-96287480D01*
X159869138Y-96758816D01*
X159613292Y-97374961D01*
X159612927Y-97793255D01*
X159473182Y-97933000D01*
X157457071Y-97933000D01*
X157395818Y-97841328D01*
X157307957Y-97782621D01*
X157251212Y-97497346D01*
X157006909Y-97131721D01*
X156338278Y-96463090D01*
X155972653Y-96218787D01*
X155541369Y-96132999D01*
X142645999Y-96132999D01*
X142214715Y-96218787D01*
X141849090Y-96463090D01*
X140973090Y-97339090D01*
X140965044Y-97351132D01*
X140328240Y-97477800D01*
X139784182Y-97841328D01*
X139700000Y-97967315D01*
X139615818Y-97841328D01*
X139071760Y-97477800D01*
X138430000Y-97350146D01*
X137788240Y-97477800D01*
X137244182Y-97841328D01*
X136880654Y-98385386D01*
X136753000Y-99027146D01*
X136753000Y-99092854D01*
X136880654Y-99734614D01*
X136949734Y-99838000D01*
X136592919Y-99838000D01*
X136161635Y-99923788D01*
X135796010Y-100168091D01*
X133823091Y-102141010D01*
X133578788Y-102506635D01*
X133517001Y-102817258D01*
X133364993Y-102918827D01*
X132990626Y-103479106D01*
X132859166Y-104140000D01*
X132990626Y-104800894D01*
X133364993Y-105361173D01*
X133925272Y-105735540D01*
X134586166Y-105867000D01*
X134653834Y-105867000D01*
X135314728Y-105735540D01*
X135875007Y-105361173D01*
X135890000Y-105338734D01*
X135904993Y-105361173D01*
X135978068Y-105410000D01*
X135904993Y-105458827D01*
X135530626Y-106019106D01*
X135399166Y-106680000D01*
X135530626Y-107340894D01*
X135904993Y-107901173D01*
X136465272Y-108275540D01*
X137033000Y-108388468D01*
X137033000Y-110051532D01*
X136465272Y-110164460D01*
X135904993Y-110538827D01*
X135890000Y-110561266D01*
X135875007Y-110538827D01*
X135801932Y-110490000D01*
X135875007Y-110441173D01*
X136249374Y-109880894D01*
X136380834Y-109220000D01*
X136249374Y-108559106D01*
X135875007Y-107998827D01*
X135314728Y-107624460D01*
X134653834Y-107493000D01*
X134586166Y-107493000D01*
X133925272Y-107624460D01*
X133364993Y-107998827D01*
X133284311Y-108119576D01*
X133058189Y-108164555D01*
X132986634Y-108178788D01*
X132621009Y-108423091D01*
X129473070Y-111571031D01*
X129228767Y-111936656D01*
X129142979Y-112367940D01*
X129142979Y-118995403D01*
X129228767Y-119426687D01*
X129473070Y-119792312D01*
X132917698Y-123236941D01*
X133283323Y-123481243D01*
X133714607Y-123567031D01*
X145822612Y-123567031D01*
X146253896Y-123481243D01*
X146619521Y-123236940D01*
X149365917Y-120490544D01*
X175322571Y-120490544D01*
X175698877Y-121401275D01*
X176395060Y-122098674D01*
X177305133Y-122476569D01*
X178290544Y-122477429D01*
X179201275Y-122101123D01*
X179898674Y-121404940D01*
X180276569Y-120494867D01*
X180277429Y-119509456D01*
X179901123Y-118598725D01*
X179204940Y-117901326D01*
X178294867Y-117523431D01*
X177309456Y-117522571D01*
X176398725Y-117898877D01*
X175701326Y-118595060D01*
X175323431Y-119505133D01*
X175322571Y-120490544D01*
X149365917Y-120490544D01*
X150619461Y-119237000D01*
X157480000Y-119237000D01*
X157911284Y-119151212D01*
X158276909Y-118906909D01*
X160181909Y-117001909D01*
X160426212Y-116636284D01*
X160512000Y-116205000D01*
X160512000Y-115617931D01*
X160606173Y-115555007D01*
X160980540Y-114994728D01*
X161112000Y-114333834D01*
X161112000Y-114266166D01*
X160980540Y-113605272D01*
X160606173Y-113044993D01*
X160512000Y-112982069D01*
X160512000Y-110570000D01*
X160426212Y-110138716D01*
X160181909Y-109773091D01*
X155981928Y-105573110D01*
X155982290Y-105157888D01*
X155727520Y-104541297D01*
X155256184Y-104069138D01*
X154640039Y-103813292D01*
X153972888Y-103812710D01*
X153356297Y-104067480D01*
X153060261Y-104363000D01*
X150469534Y-104363000D01*
X150176184Y-104069138D01*
X149560039Y-103813292D01*
X148892888Y-103812710D01*
X148404177Y-104014641D01*
X151126910Y-101291908D01*
X151371213Y-100926283D01*
X151384397Y-100860001D01*
X151413548Y-100713453D01*
X151771760Y-100642200D01*
X152315818Y-100278672D01*
X152400000Y-100152685D01*
X152484182Y-100278672D01*
X152572043Y-100337379D01*
X152628788Y-100622654D01*
X152873091Y-100988279D01*
X153541722Y-101656910D01*
X153907347Y-101901213D01*
X154338631Y-101987001D01*
X162029999Y-101987001D01*
X162461283Y-101901213D01*
X162826908Y-101656910D01*
X173816820Y-90666999D01*
X174735819Y-90666999D01*
X174735819Y-92340000D01*
X174803884Y-92682188D01*
X174997719Y-92972281D01*
X175287812Y-93166116D01*
X175403000Y-93189028D01*
X175403000Y-95262027D01*
X175344182Y-95301328D01*
X174980654Y-95845386D01*
X174853000Y-96487146D01*
X174853000Y-96552854D01*
X174980654Y-97194614D01*
X175344182Y-97738672D01*
X175888240Y-98102200D01*
X176530000Y-98229854D01*
X177171760Y-98102200D01*
X177715818Y-97738672D01*
X178079346Y-97194614D01*
X178207000Y-96552854D01*
X178207000Y-96487146D01*
X178079346Y-95845386D01*
X177715818Y-95301328D01*
X177657000Y-95262027D01*
X177657000Y-93189028D01*
X177772188Y-93166116D01*
X178062281Y-92972281D01*
X178076203Y-92951446D01*
X178714982Y-93216690D01*
X179421916Y-93217307D01*
X180075274Y-92947345D01*
X180575588Y-92447904D01*
X180846690Y-91795018D01*
X180847307Y-91088084D01*
X180577345Y-90434726D01*
X180168807Y-90025474D01*
X180111212Y-89735924D01*
X180111212Y-89735923D01*
X179866909Y-89370298D01*
X179239700Y-88743090D01*
X178874075Y-88498787D01*
X178442791Y-88412999D01*
X173350001Y-88412999D01*
X172918717Y-88498787D01*
X172829991Y-88558072D01*
X172999346Y-88304614D01*
X173127000Y-87662854D01*
X173127000Y-87597146D01*
X172999346Y-86955386D01*
X172635818Y-86411328D01*
X172577000Y-86372027D01*
X172577000Y-84299028D01*
X172692188Y-84276116D01*
X172982281Y-84082281D01*
X172996203Y-84061446D01*
X173634982Y-84326690D01*
X174341916Y-84327307D01*
X174995274Y-84057345D01*
X175495588Y-83557904D01*
X175766690Y-82905018D01*
X175767307Y-82198084D01*
X175497345Y-81544726D01*
X175088807Y-81135474D01*
X175031212Y-80845924D01*
X174786909Y-80480299D01*
X174109700Y-79803090D01*
X173744075Y-79558787D01*
X173312791Y-79472999D01*
X168350001Y-79472999D01*
X167990271Y-79544554D01*
X167918716Y-79558787D01*
X167553091Y-79803090D01*
X165334600Y-82021581D01*
X165379346Y-81954614D01*
X165507000Y-81312854D01*
X165507000Y-81247146D01*
X165379346Y-80605386D01*
X165015818Y-80061328D01*
X164957000Y-80022027D01*
X164957000Y-77314028D01*
X165072188Y-77291116D01*
X165362281Y-77097281D01*
X165376203Y-77076446D01*
X166014982Y-77341690D01*
X166721916Y-77342307D01*
X167375274Y-77072345D01*
X167875588Y-76572904D01*
X168146690Y-75920018D01*
X168147307Y-75213084D01*
X167877345Y-74559726D01*
X167808284Y-74490544D01*
X175322571Y-74490544D01*
X175698877Y-75401275D01*
X176395060Y-76098674D01*
X177305133Y-76476569D01*
X178290544Y-76477429D01*
X179201275Y-76101123D01*
X179898674Y-75404940D01*
X180276569Y-74494867D01*
X180277429Y-73509456D01*
X179901123Y-72598725D01*
X179204940Y-71901326D01*
X178294867Y-71523431D01*
X177309456Y-71522571D01*
X176398725Y-71898877D01*
X175701326Y-72595060D01*
X175323431Y-73505133D01*
X175322571Y-74490544D01*
X167808284Y-74490544D01*
X167377904Y-74059412D01*
X166895860Y-73859250D01*
X166489700Y-73453090D01*
X166124075Y-73208787D01*
X165692791Y-73122999D01*
X162089999Y-73122999D01*
X161658715Y-73208787D01*
X161293090Y-73453090D01*
X161083090Y-73663090D01*
X160838787Y-74028715D01*
X160752999Y-74459999D01*
X160752999Y-81631813D01*
X152873091Y-89511721D01*
X152628788Y-89877346D01*
X152572043Y-90162621D01*
X152484182Y-90221328D01*
X152400000Y-90347315D01*
X152315818Y-90221328D01*
X152257000Y-90182027D01*
X152257000Y-83775820D01*
X157641910Y-78390911D01*
X157886212Y-78025286D01*
X157972000Y-77594002D01*
X157972000Y-73775831D01*
X158350588Y-73397904D01*
X158621690Y-72745018D01*
X158622307Y-72038084D01*
X158352345Y-71384726D01*
X157852904Y-70884412D01*
X157200018Y-70613310D01*
X156493084Y-70612693D01*
X155850867Y-70878052D01*
X155837281Y-70857719D01*
X155547188Y-70663884D01*
X155205000Y-70595819D01*
X153405000Y-70595819D01*
X153062812Y-70663884D01*
X152772719Y-70857719D01*
X152578884Y-71147812D01*
X152510819Y-71490000D01*
X152510819Y-73290000D01*
X152578884Y-73632188D01*
X152772719Y-73922281D01*
X153062812Y-74116116D01*
X153178000Y-74139028D01*
X153178000Y-76212027D01*
X153119182Y-76251328D01*
X152755654Y-76795386D01*
X152628000Y-77437146D01*
X152628000Y-77502854D01*
X152755654Y-78144614D01*
X153119182Y-78688672D01*
X153663240Y-79052200D01*
X153771458Y-79073726D01*
X150333091Y-82512093D01*
X150088788Y-82877718D01*
X150003000Y-83309002D01*
X150003000Y-90182027D01*
X149944182Y-90221328D01*
X149860000Y-90347315D01*
X149775818Y-90221328D01*
X149717000Y-90182027D01*
X149717000Y-75565000D01*
X149631212Y-75133716D01*
X149386909Y-74768091D01*
X147191840Y-72573022D01*
X147192307Y-72038084D01*
X146922345Y-71384726D01*
X146422904Y-70884412D01*
X145770018Y-70613310D01*
X145063084Y-70612693D01*
X144420867Y-70878052D01*
X144407281Y-70857719D01*
X144117188Y-70663884D01*
X143775000Y-70595819D01*
X141975000Y-70595819D01*
X141632812Y-70663884D01*
X141342719Y-70857719D01*
X141148884Y-71147812D01*
X141080819Y-71490000D01*
X141080819Y-73290000D01*
X141148884Y-73632188D01*
X141342719Y-73922281D01*
X141632812Y-74116116D01*
X141748000Y-74139028D01*
X141748000Y-76212027D01*
X141689182Y-76251328D01*
X141325654Y-76795386D01*
X141198000Y-77437146D01*
X141198000Y-77502854D01*
X141325654Y-78144614D01*
X141689182Y-78688672D01*
X142233240Y-79052200D01*
X142875000Y-79179854D01*
X143516760Y-79052200D01*
X144060818Y-78688672D01*
X144424346Y-78144614D01*
X144552000Y-77502854D01*
X144552000Y-77437146D01*
X144424346Y-76795386D01*
X144060818Y-76251328D01*
X144002000Y-76212027D01*
X144002000Y-74139028D01*
X144117188Y-74116116D01*
X144407281Y-73922281D01*
X144421203Y-73901446D01*
X145059982Y-74166690D01*
X145598342Y-74167160D01*
X147463000Y-76031818D01*
X147463000Y-90182027D01*
X147404182Y-90221328D01*
X147320000Y-90347315D01*
X147235818Y-90221328D01*
X147147957Y-90162621D01*
X147091212Y-89877346D01*
X147048808Y-89813884D01*
X146846910Y-89511721D01*
X146128278Y-88793090D01*
X145762653Y-88548787D01*
X145331369Y-88462999D01*
X144468815Y-88462999D01*
X137017000Y-81011184D01*
X137017000Y-76950831D01*
X137395588Y-76572904D01*
X137666690Y-75920018D01*
X137667307Y-75213084D01*
X137397345Y-74559726D01*
X136897904Y-74059412D01*
X136245018Y-73788310D01*
X135538084Y-73787693D01*
X134895867Y-74053052D01*
X134882281Y-74032719D01*
X134592188Y-73838884D01*
X134250000Y-73770819D01*
X132450000Y-73770819D01*
X132107812Y-73838884D01*
X131817719Y-74032719D01*
X131623884Y-74322812D01*
X131555819Y-74665000D01*
X131555819Y-76465000D01*
X131623884Y-76807188D01*
X131817719Y-77097281D01*
X132107812Y-77291116D01*
X132223000Y-77314028D01*
X132223000Y-80022027D01*
X132164182Y-80061328D01*
X131800654Y-80605386D01*
X131673000Y-81247146D01*
X131673000Y-81312854D01*
X131800654Y-81954614D01*
X132046801Y-82322999D01*
X130047198Y-82322999D01*
X130047307Y-82198084D01*
X129777345Y-81544726D01*
X129277904Y-81044412D01*
X128625018Y-80773310D01*
X127918084Y-80772693D01*
X127275867Y-81038052D01*
X127262281Y-81017719D01*
X126972188Y-80823884D01*
X126630000Y-80755819D01*
X124830000Y-80755819D01*
X124487812Y-80823884D01*
X124197719Y-81017719D01*
X124003884Y-81307812D01*
X123935819Y-81650000D01*
X123935819Y-83450000D01*
X124003884Y-83792188D01*
X124197719Y-84082281D01*
X124487812Y-84276116D01*
X124603000Y-84299028D01*
X124603000Y-86360000D01*
X124688788Y-86791284D01*
X124933091Y-87156909D01*
X125331350Y-87555168D01*
X125323000Y-87597146D01*
X125323000Y-87662854D01*
X125450654Y-88304614D01*
X125814182Y-88848672D01*
X126358240Y-89212200D01*
X127000000Y-89339854D01*
X127641760Y-89212200D01*
X128185818Y-88848672D01*
X128549346Y-88304614D01*
X128677000Y-87662854D01*
X128677000Y-87597146D01*
X128549346Y-86955386D01*
X128185818Y-86411328D01*
X127641760Y-86047800D01*
X127000000Y-85920146D01*
X126903216Y-85939398D01*
X126857000Y-85893182D01*
X126857000Y-84299028D01*
X126972188Y-84276116D01*
X127262281Y-84082281D01*
X127276203Y-84061446D01*
X127914982Y-84326690D01*
X128493247Y-84327195D01*
X128738715Y-84491211D01*
X129169999Y-84576999D01*
X135627399Y-84576999D01*
X140811978Y-89761579D01*
X140328240Y-89857800D01*
X139784182Y-90221328D01*
X139420654Y-90765386D01*
X139293000Y-91407146D01*
X139293000Y-91472854D01*
X139420654Y-92114614D01*
X139489734Y-92218000D01*
X125561818Y-92218000D01*
X124966840Y-91623022D01*
X124967307Y-91088084D01*
X124697345Y-90434726D01*
X124197904Y-89934412D01*
X123545018Y-89663310D01*
X122838084Y-89662693D01*
X122195867Y-89928052D01*
X122182281Y-89907719D01*
X121892188Y-89713884D01*
X121550000Y-89645819D01*
X119750000Y-89645819D01*
X119407812Y-89713884D01*
X119117719Y-89907719D01*
X118923884Y-90197812D01*
X118855819Y-90540000D01*
X117550000Y-90540000D01*
X117550000Y-74490544D01*
X119322571Y-74490544D01*
X119698877Y-75401275D01*
X120395060Y-76098674D01*
X121305133Y-76476569D01*
X122290544Y-76477429D01*
X123201275Y-76101123D01*
X123898674Y-75404940D01*
X124276569Y-74494867D01*
X124277429Y-73509456D01*
X123901123Y-72598725D01*
X123204940Y-71901326D01*
X122294867Y-71523431D01*
X121309456Y-71522571D01*
X120398725Y-71898877D01*
X119701326Y-72595060D01*
X119323431Y-73505133D01*
X119322571Y-74490544D01*
X117550000Y-74490544D01*
X117550000Y-73729931D01*
X117895498Y-71992995D01*
X118839779Y-70579779D01*
X120252997Y-69635498D01*
X121989931Y-69290000D01*
X177730069Y-69290000D01*
X179467005Y-69635498D01*
M02*
