M48
;DRILL file {KiCad (2018-01-11 revision 6f2beeb)-master} date Monday, January 15, 2018 'PMt' 02:12:31 PM
;FORMAT={-:-/ absolute / inch / decimal}
FMAT,2
INCH,TZ
T1C0.0315
T2C0.0354
T3C0.0394
T4C0.1260
%
G90
G05
M72
T1
X1.7831Y1.3106
X1.7831Y1.1138
X0.8831Y1.3606
X0.8831Y1.0606
X0.9831Y1.3606
X0.9831Y1.0606
X1.0831Y1.3606
X1.0831Y1.0606
X1.1831Y1.3606
X1.1831Y1.0606
X1.2831Y1.3606
X1.2831Y1.0606
X1.3831Y1.3606
X1.3831Y1.0606
X1.4831Y1.3606
X1.4831Y1.0606
X1.5831Y1.3606
X1.5831Y1.0606
X2.3831Y1.1606
X2.3831Y0.8606
X1.5081Y1.9106
X1.5081Y1.6106
X0.6831Y1.7606
X0.6831Y1.4606
X1.3081Y0.8075
X1.3081Y0.6106
X0.1831Y1.1606
X0.1831Y0.8606
X2.1831Y1.5106
X2.1831Y1.2106
X1.5081Y0.8075
X1.5081Y0.6106
X1.8831Y1.7606
X1.8831Y1.4606
X1.0581Y1.9106
X1.0581Y1.6106
X0.4331Y1.5106
X0.4331Y1.2106
T2
X1.5081Y2.1106
X1.6081Y2.1106
X2.1831Y1.7106
X2.2831Y1.7106
X0.3831Y1.7106
X0.4831Y1.7106
X1.0581Y2.1106
X1.1581Y2.1106
X0.6831Y1.9856
X0.7831Y1.9856
X0.1831Y1.3606
X0.2831Y1.3606
X2.3831Y1.3606
X2.4831Y1.3606
X1.8831Y1.9856
X1.9831Y1.9856
T3
X1.2081Y0.4606
X1.3081Y0.4606
X1.4081Y0.4606
X1.5081Y0.4606
X1.6081Y0.4606
X1.7081Y0.4606
X0.7331Y0.8606
X0.7331Y0.7606
X0.7331Y0.6606
X0.7331Y0.5606
X0.7331Y0.4606
X0.7331Y0.3606
X0.8331Y0.8606
X0.8331Y0.7606
X0.8331Y0.6606
X0.8331Y0.5606
X0.8331Y0.4606
X0.8331Y0.3606
T4
X0.2283Y0.2362
X2.4331Y0.2362
X2.4331Y2.0472
X0.2283Y2.0472
T0
M30
