M48
;DRILL file {KiCad (2018-01-11 revision 6f2beeb)-master} date Monday, January 15, 2018 'AMt' 12:37:40 AM
;FORMAT={-:-/ absolute / inch / decimal}
FMAT,2
INCH,TZ
T1C0.0315
T2C0.0354
T3C0.0394
T4C0.1260
%
G90
G05
M72
T1
X5.45Y-3.6
X5.45Y-3.9
X5.55Y-3.6
X5.55Y-3.9
X5.65Y-3.6
X5.65Y-3.9
X5.75Y-3.6
X5.75Y-3.9
X5.85Y-3.6
X5.85Y-3.9
X5.95Y-3.6
X5.95Y-3.9
X6.05Y-3.6
X6.05Y-3.9
X6.15Y-3.6
X6.15Y-3.9
X6.075Y-4.1531
X6.075Y-4.35
X6.95Y-3.8
X6.95Y-4.1
X6.075Y-3.05
X6.075Y-3.35
X5.25Y-3.2
X5.25Y-3.5
X4.75Y-3.8
X4.75Y-4.1
X5.875Y-4.1531
X5.875Y-4.35
X6.75Y-3.45
X6.75Y-3.75
X6.35Y-3.65
X6.35Y-3.8469
X6.45Y-3.2
X6.45Y-3.5
X5.625Y-3.05
X5.625Y-3.35
X5.Y-3.45
X5.Y-3.75
T2
X6.75Y-3.25
X6.85Y-3.25
X6.075Y-2.85
X6.175Y-2.85
X5.25Y-2.975
X5.35Y-2.975
X6.95Y-3.6
X7.05Y-3.6
X6.45Y-2.975
X6.55Y-2.975
X5.625Y-2.85
X5.725Y-2.85
X4.75Y-3.6
X4.85Y-3.6
X4.95Y-3.25
X5.05Y-3.25
T3
X5.775Y-4.5
X5.875Y-4.5
X5.975Y-4.5
X6.075Y-4.5
X6.175Y-4.5
X6.275Y-4.5
X5.3Y-4.1
X5.3Y-4.2
X5.3Y-4.3
X5.3Y-4.4
X5.3Y-4.5
X5.3Y-4.6
X5.4Y-4.1
X5.4Y-4.2
X5.4Y-4.3
X5.4Y-4.4
X5.4Y-4.5
X5.4Y-4.6
T4
X4.7953Y-4.7244
X4.7953Y-2.9134
X7.Y-4.7244
X7.Y-2.9134
T0
M30
